<svg xmlns="http://www.w3.org/2000/svg" xml:space="preserve" id="Layer_1" viewBox="130 130 700 700"><path fill="#c8c8c8" d="M1 692v-25l26-1v-25h25v26H31q-4 0-4 4v21z"/><path fill="#fffffe" d="M1025 769v25l-26 1v25h-25v-25h20q6 1 5-5v-21z"/><path fill="#c9c9c8" d="M52 1025H27v-21q0-5-5-5H1v-25h26v21q0 4 4 4h21z"/><path fill="#c9c9c9" d="M1 180v-25h21q5 1 5-5v-21h25v26H31q-4 0-4 4v21z"/><path fill="#fff" d="M1025 615v26h-26v-26z"/><path fill="#cacac9" d="M1025 436v26h-26v-26z"/><path fill="#c9c9c8" d="M1025 487v26h-26v-26z"/><path fill="#fefefe" d="M999 513h26v25l-26 1z"/><path fill="#c9c9c9" d="M1 590v-26h26v26zm0-51v-26h26v26z"/><path fill="#fefefe" d="M1025 564v26h-26v-26z"/><path fill="#c9c9c9" d="M1 283v-26h26v26z"/><path fill="#fefefe" d="M1 180h26v26H1z"/><path fill="#c9c9c9" d="M1 27V1h25l1 26z"/><path fill="#fefefe" d="M1 462v-26h26v26z"/><path fill="#c9c8c8" d="M1025 385v26h-26v-26z"/><path fill="#fff" d="M1025 385h-26v-26h26z"/><path fill="#fefefe" d="M1025 308v26h-26v-26z"/><path fill="#cacac9" d="M1 334v-26h26v26z"/><path fill="#fefefe" d="M1025 257v25l-26 1v-26zM27 974H1v-26h26z"/><path fill="#c8c8c8" d="M1025 897v26h-26v-26zm-819 128h-26v-26h26z"/><path fill="#c9c9c9" d="M974 1025h-26v-26h26z"/><path fill="#c8c8c8" d="M923 1025h-26v-26h26z"/><path fill="#fff" d="M897 999v26h-26v-26z"/><path fill="#c8c8c8" d="M769 1025h-26v-26h26zm-51 0h-26v-26h26zm-51 0h-26v-26h26z"/><path fill="#fff" d="M641 999v26h-26v-26z"/><path fill="#fffffe" d="M590 1025h-26v-26h26z"/><path fill="#c9c8c8" d="M513 1025h-25l-1-26h26z"/><path fill="#c8c8c8" d="M462 1025h-26v-26h26zm-51 0h-26v-26h26z"/><path fill="#fff" d="M385 999v26h-26v-26z"/><path fill="#fffffe" d="M334 1025h-26v-26h26z"/><path fill="#c8c8c7" d="M257 1025h-26v-26h26z"/><path fill="#c8c8c8" d="M155 1025h-26v-26h26z"/><path fill="#fff" d="M129 999v26h-26v-26z"/><path fill="#c9c9c8" d="M1025 948v26h-26v-26z"/><path fill="#c9c9c9" d="M1 795v-26h26v26z"/><path fill="#c9c9c8" d="M1025 769h-26v-26h26zm0-77v26h-26v-26z"/><path fill="#c8c8c8" d="M1025 999v26h-25l-1-26z"/><path fill="#fefefe" d="M1 692h26v26H1z"/><path fill="#c9c8c8" d="M999 641h26v26h-26z"/><path fill="#c8c8c8" d="M1 897v-26h26v26z"/><path fill="#fefefe" d="M1025 820v26h-26v-26z"/><path fill="#c9c9c9" d="M1 846v-26h26v26zM820 1h26v26h-26z"/><path fill="#c9c8c8" d="M257 1h26v26h-26z"/><path fill="#fff" d="M820 1v26h-26V1z"/><path fill="#c9c8c8" d="M308 1h26v26h-26z"/><path fill="#cacac9" d="M1 78V52h26v26z"/><path fill="#c9c9c9" d="M1025 129v26h-26v-26z"/><path fill="#c8c8c8" d="M103 1h26v26h-26z"/><path fill="#fefefe" d="M948 1h26v26h-26zM436 1h26v26h-26z"/><path fill="#c9c8c8" d="M359 1h26v26h-26zm512 0h26v26h-26z"/><path fill="#c9c9c9" d="M615 1h26v26h-26zm-51 0h26v26h-26zM1 129v-26h26v26z"/><path fill="#c9c8c8" d="M52 1h26v26H52z"/><path fill="#fefefe" d="M1025 52v26h-26V52z"/><path fill="#fff" d="M1025 129h-26v-26h26zM487 1h26v26h-25zM27 513H1v-25l25-1z"/><path fill="#fffffe" d="M27 257H1v-25l8-1 18 2z"/><path fill="#fefefe" d="M743 1h26v26h-25z"/><path fill="#fffffe" d="M27 769H1v-25l25-1z"/><path fill="#fefefe" d="M999 1h26v25l-25 1z"/><path fill="#fff" d="M1 999h21q6 0 5 5v21H1z"/><path fill="#fffffe" d="M1 129h26v21q1 6-5 5H1zm768 896v-26h25l1 26z"/><path fill="#fefefe" d="M257 1v26l-26-1V1zm128 26V1h26v25z"/><path fill="#fffffe" d="M257 1025v-26h25l1 26zm256 0v-26h25l1 26z"/><path fill="#fff" d="M564 1v26h-25l-1-26zm461 896h-26v-25l26-1z"/><path fill="#fefefe" d="M180 1h26v25l-26 1z"/><path fill="#fffffe" d="M846 1025h-26v-26l26 1zm-794 0v-26l26 1v25z"/><path fill="#fefefe" d="M692 1h26v25l-26 1z"/><path fill="#c9c9c9" d="M1025 257h-25l-1-26h26z"/><path fill="#fefefe" d="M641 27V1h26v25z"/><path fill="#fffffe" d="M129 27V1h26v25z"/><path fill="#c9c9c9" d="M1025 180v26h-25l-1-26zM1 385v-25l26-1v26z"/><path fill="#fefefe" d="M897 27V1h26v25z"/><path fill="#c9c9c9" d="M27 436H1v-25l26-1z"/><path fill="#fff" d="M1 590h26v25l-26 1z"/><path fill="#fefefe" d="M27 641v25l-26 1v-26z"/><path fill="#c8c8c8" d="M27 948H1v-25l26-1z"/><path fill="#fffffe" d="m27 922-26 1v-26h26z"/><path fill="#c9c9c8" d="M27 641H1v-25l26-1z"/><path fill="#fefefe" d="m27 410-26 1v-26h26z"/><path fill="#c9c9c9" d="m538 1 1 26h-26V1z"/><path fill="#c9c8c8" d="m1025 871-26 1v-26h26z"/><path fill="#c9c9c8" d="m539 1025-1-26h26v26zm-256 0-1-26h26v26zm537-26v26h-25l-1-26z"/><path fill="#c9c9c9" d="M718 26V1h25l1 26h-26zM27 232l-18-1H1v-25h26zM487 1l1 26h-26V1zm512 0 1 26h-26V1z"/><path fill="#c9c8c8" d="M999 27h25v25h-26z"/><path fill="#c9c9c9" d="M999 334h26v25h-26z"/><path fill="#fff" d="M1 846h26v25H1z"/><path fill="#c9c9c9" d="M999 590h26v25h-26z"/><path fill="#c9c9c8" d="M1025 564h-26v-25h26z"/><path fill="#fefefe" d="M1025 487h-26v-25h26z"/><path fill="#c9c9c9" d="M26 487H1v-25h26z"/><path fill="#fefefe" d="M999 667h26v25h-26z"/><path fill="#c9c9c9" d="M26 743H1v-25h26z"/><path fill="#fefefe" d="M999 718h26v25h-26z"/><path fill="#c9c9c9" d="M1025 103h-26V78h26z"/><path fill="#fefefe" d="M999 411h26v25h-26z"/><path fill="#fff" d="M52 1v26H27V1zm666 1024v-26h25v26z"/><path fill="#c9c9c8" d="M846 1025v-26h25v26z"/><path fill="#c9c9c9" d="M155 26V1h25v26z"/><path fill="#fff" d="M1025 180h-26v-25h26zm-25 26h25v25h-26z"/><path fill="#c9c8c8" d="M769 27V1h25v26z"/><path fill="#fff" d="M667 1025v-26h25v26zM590 27V1h25v26z"/><path fill="#fefefe" d="M27 308H1v-25h26z"/><path fill="#c9c9c8" d="M667 26V1h25v26z"/><path fill="#c9c9c9" d="M999 283h26v25h-26z"/><path fill="#fff" d="M155 1025v-26h25v26zM359 1v26h-25V1zm564 1024v-26h25v26zm-512 0v-26h25v26z"/><path fill="#c9c9c9" d="M206 26V1h25v26zm205 0V1h25v26z"/><path fill="#fffffe" d="M1025 948h-26v-25h26z"/><path fill="#c9c8c8" d="M334 1025v-26h25v26z"/><path fill="#fff" d="M1025 999h-26v-25h26zM871 1v26h-25V1z"/><path fill="#c9c9c8" d="M590 1025v-26h25v26z"/><path fill="#fff" d="M308 1v26h-25V1z"/><path fill="#c9c9c9" d="M923 26V1h25v26z"/><path fill="#c9c9c8" d="M78 1025v-26h25v26z"/><path fill="#fff" d="m27 359-26 1v-26h26z"/><path fill="#c8c8c8" d="M1025 820h-26v-25h26z"/><path fill="#fff" d="M231 999v26h-25v-25z"/><path fill="#fffffe" d="M26 52H1V27h26z"/><path fill="#fefefe" d="M1 539h26l-1 25H1z"/><path fill="#fffffe" d="M26 820H1v-25h26z"/><path fill="#fff" d="M462 1025v-25l25-1v26zm537-26v26h-25v-25zM27 103H1V78h26zm51-77V1h25v26z"/><path fill="#c7c7c7" d="m52 667 26 1v25H52z"/><path fill="#fefefe" d="M78 666H52v-25h26z"/><path fill="#fffffe" d="M27 641v-26h25v26z"/><path fill="#fefefe" d="M52 667v25H27v-21q0-4 4-4z"/><path fill="#c9c9c9" d="M999 820v26h-25v-26z"/><path fill="#c8c8c8" d="M974 795v25h-26v-25z"/><path fill="#c9c8c8" d="M999 769v21q1 5-5 5h-20v-26z"/><path fill="#fff" d="M52 999H31q-4 0-4-4v-21h25z"/><path fill="#fefefe" d="M52 155v-26h26v25z"/><path fill="#fffffe" d="M27 129v-26h25v26z"/><path fill="#fefefe" d="M27 180v-21q0-4 4-4h21v25z"/><path fill="#c9c9c8" d="M999 615v26h-25v-26z"/><path fill="#fefefd" d="M999 436v26h-25v-26z"/><path fill="#fffffe" d="M999 487v26h-25v-25z"/><path fill="#c9c9c8" d="M974 513h25v26h-25z"/><path fill="#fefefe" d="M27 590v-26h25v26z"/><path fill="#c9c8c8" d="M52 564H26l1-25h25z"/><path fill="#fefefe" d="M52 539H27v-26h25z"/><path fill="#c9c9c8" d="M999 564v26h-25v-26z"/><path fill="#fefefe" d="M27 283v-26h25v26z"/><path fill="#c9c9c9" d="M27 180h25v26H27z"/><path fill="#c9c9c8" d="M27 462v-26h25v26z"/><path fill="#fefefe" d="M999 385v26h-25v-26z"/><path fill="#c9c9c9" d="M999 385h-25v-26h25zm0-77v26h-25v-26z"/><path fill="#fefefe" d="M27 334v-26h25v26zm972-103 1 26h-26v-25z"/><path fill="#c9c9c9" d="M974 257h25v26h-25z"/><path fill="#c9c9c8" d="M52 974H27v-26h25z"/><path fill="#fefefe" d="M999 897v26h-25v-26z"/><path fill="#fffffe" d="M206 999h-26v-25h26z"/><path fill="#c9c9c8" d="M206 999v-25h25v25z"/><path fill="#fefefe" d="M974 999h-26v-25h26z"/><path fill="#c9c9c9" d="M974 999v-25h25v25z"/><path fill="#fefefe" d="M923 999h-26v-25h26z"/><path fill="#c9c9c8" d="M897 974v25h-26v-25z"/><path fill="#fffffe" d="M769 999h-26v-25h26z"/><path fill="#fefefe" d="M718 999h-26v-25h26zm-51 0h-26v-25h26z"/><path fill="#c8c8c7" d="M641 974v25h-26v-25z"/><path fill="#c7c7c7" d="M590 999h-26v-25h26z"/><path fill="#fff" d="M513 999h-26v-25h26z"/><path fill="#fefefe" d="M462 999h-26v-25h26z"/><path fill="#c9c9c8" d="M462 999v-25h25v25z"/><path fill="#fffffe" d="M411 999h-26v-25h26z"/><path fill="#c7c7c7" d="M385 974v25h-26v-25zm-51 25h-26v-25h26z"/><path fill="#fefefe" d="M231 999v-25h26v25zm-76 0h-26v-25h26z"/><path fill="#c8c8c7" d="M129 974v25h-26v-25z"/><path fill="#fefefe" d="M999 974h-25v-26h25zM27 795v-26h25v26zm972-26h-25v-25l25-1zm0-77v26h-25v-26z"/><path fill="#c9c9c9" d="M27 692h25v26H27z"/><path fill="#fefefe" d="M974 641h25v26h-25z"/><path fill="#fffffe" d="M27 897v-26h25v26z"/><path fill="#fefefe" d="M27 846v-26h25v26z"/><path fill="#c8c8c8" d="M52 820H26l1-25h25z"/><path fill="#fefefe" d="M820 27h26v25h-26zm-563 0h26v25h-26zm512 0h26l-1 25h-25z"/><path fill="#c8c8c8" d="m794 52 1-25h25v25z"/><path fill="#fefefe" d="M308 27h26v25h-26zM27 78V52h25v26z"/><path fill="#c9c9c8" d="M52 52H26l1-25h25z"/><path fill="#fefefe" d="M999 129v26h-25v-26zM103 27h26v25h-26z"/><path fill="#c8c8c8" d="M948 27h26v25h-26z"/><path fill="#c9c8c8" d="M436 27h26v25h-26z"/><path fill="#fefefe" d="M359 27h26v25h-26zm512 0h26v25h-26zm-256 0h26v25h-26zm-51 0h26v25h-26zM52 52V27h26v25z"/><path fill="#c9c9c8" d="M78 52V26l25 1v25z"/><path fill="#cacac9" d="M999 52v26h-25V52z"/><path fill="#c9c9c8" d="M999 129h-25v-26h25z"/><path fill="#c9c8c8" d="M487 27h25v25h-26z"/><path fill="#c9c9c8" d="M52 513H27l-1-26h26z"/><path fill="#c9c9c9" d="M52 257H27v-26h25z"/><path fill="#c8c8c8" d="M769 27v25h-26V27z"/><path fill="#c9c9c8" d="M52 769H27l-1-26h26z"/><path fill="#c8c8c8" d="M769 999v-25h26v25z"/><path fill="#c9c8c8" d="M257 27v25h-26V26z"/><path fill="#c8c8c8" d="M385 52V27l26-1v26z"/><path fill="#c8c8c7" d="M257 999v-25h26v25zm256 0v-25h26v25z"/><path fill="#c9c8c8" d="M564 27v25h-25V27z"/><path fill="#c9c9c8" d="M999 897h-25v-26h25zM206 26v26h-26V27z"/><path fill="#c8c8c7" d="m846 999-26-1v-25h26zm-794 0v-25h26v26z"/><path fill="#c8c8c8" d="M718 26v26h-26V27z"/><path fill="#c9c8c8" d="M641 52V27l26-1v26zm-512 0V27l26-1v26z"/><path fill="#fefefe" d="M1000 206h-26v-26h25z"/><path fill="#fffffe" d="M27 385v-26l25 1v25z"/><path fill="#c9c8c8" d="M897 52V27l26-1v26zM27 385h25v26H27z"/><path fill="#fefefe" d="M27 411h25v25H27z"/><path fill="#c9c9c9" d="M27 590h25v25H27z"/><path fill="#c8c8c8" d="M27 897h25v26H27z"/><path fill="#fefefe" d="M27 923h25v25H27zM539 27v25h-26V27z"/><path fill="#fff" d="M999 871h-25v-25h25zM539 999v-25h25v25zm-256 0v-25h25v25zm537-25v25h-25v-25z"/><path fill="#fefefe" d="M718 52V27h25v25z"/><path fill="#fff" d="M52 231H27v-25h25z"/><path fill="#fefefe" d="M487 27v25h-25V27zm512 25h-25V27h25z"/><path fill="#fff" d="M974 334h25v25h-25z"/><path fill="#c9c9c9" d="M27 846h25v25H27z"/><path fill="#fff" d="M974 590h25v25h-25z"/><path fill="#fefefe" d="M999 564h-25v-25h25z"/><path fill="#c9c9c9" d="m999 487-25 1v-26h25z"/><path fill="#fff" d="M52 487H27v-25h25z"/><path fill="#c9c8c8" d="M974 667h25v25h-25z"/><path fill="#fff" d="M52 743H27v-25h25z"/><path fill="#c9c9c9" d="M974 718h25v25l-25 1z"/><path fill="#fff" d="M999 103h-25V78h25z"/><path fill="#c9c9c8" d="M974 411h25v25h-25zM718 999v-25h25v25z"/><path fill="#fff" d="M846 999v-25h25v25z"/><path fill="#fefefe" d="M155 52V27h25v25z"/><path fill="#c9c9c9" d="M999 180h-25v-25h25z"/><path fill="#cacac9" d="M974 206h25v25l-25 1z"/><path fill="#c8c8c8" d="M667 999v-25h25v25z"/><path fill="#c9c8c8" d="M590 52V27h25v25zM52 308H27v-25h25z"/><path fill="#fefefe" d="M667 52V27h25v25z"/><path fill="#fffffe" d="M974 283h25v25h-25z"/><path fill="#c9c9c8" d="M155 999v-25h25v25zM359 27v25h-25V27zm564 972v-25h25v25zm-512 0v-25h25v25z"/><path fill="#fefefe" d="M206 52V27h25v25z"/><path fill="#fffffe" d="M411 52V27h25v25z"/><path fill="#c8c8c8" d="M999 948h-25v-25h25z"/><path fill="#fff" d="M334 999v-25h25v25z"/><path fill="#c9c9c8" d="M871 27v25h-25V27z"/><path fill="#fffffe" d="M590 999v-25h25v25z"/><path fill="#c9c8c8" d="M308 27v25h-25V27z"/><path fill="#fefefe" d="M923 52V27h25v25z"/><path fill="#fffffe" d="M78 999v-25h25v25z"/><path fill="#c9c9c8" d="m52 360-25-1v-25h25z"/><path fill="#cacac9" d="M27 78h25v25H27z"/><path fill="#fefefd" d="M52 718v-26h26v26z"/><path fill="#c9c9c9" d="M78 666v-25h25v25z"/><path fill="#fffffe" d="m78 667 25-1v26H78z"/><path fill="#c7c7c7" d="M52 641v-26h26v26z"/><path fill="#fefefd" d="M948 820h26v26h-26z"/><path fill="#fefefe" d="M974 769v26h-26v-26z"/><path fill="#fffffe" d="M948 795v25h-25v-25z"/><path fill="#c8c8c8" d="M52 129v-26h26v26zm0 51v-25l26-1v26z"/><path fill="#c9c9c9" d="M78 155v-25h25v26z"/><path fill="#fefefe" d="M974 615v26h-26v-26z"/><path fill="#cacac9" d="M974 436v26h-26v-26z"/><path fill="#c7c7c7" d="M974 487v25h-26v-26z"/><path fill="#fefefe" d="M948 513h26v26h-26z"/><path fill="#c9c9c8" d="M52 590v-26h26v26z"/><path fill="#fefefe" d="M78 564H52v-25h26z"/><path fill="#c7c7c7" d="M78 539H52v-26h26z"/><path fill="#fefefd" d="M974 564v26h-26v-26z"/><path fill="#c8c8c8" d="M52 283v-26h26v26z"/><path fill="#fdfdfd" d="M52 180h26v26H52z"/><path fill="#fefefd" d="M52 462v-26h26v26z"/><path fill="#c8c8c8" d="M974 385v26h-26v-26z"/><path fill="#fefefe" d="M974 385h-26v-26h26z"/><path fill="#fefefd" d="M974 308v26h-26v-26z"/><path fill="#c9c9c9" d="M52 334v-26h26v26z"/><path fill="#c8c8c7" d="M974 231v25h-26v-26z"/><path fill="#fefefe" d="M948 257h26v25l-26 1z"/><path fill="#c8c8c8" d="M948 283h26v25h-26z"/><path fill="#fefefd" d="M78 974H52v-26h26z"/><path fill="#c8c8c7" d="M974 897v26h-26v-26z"/><path fill="#c8c8c8" d="M206 974h-26v-26h26z"/><path fill="#fefefe" d="M206 974v-26h25v26z"/><path fill="#c9c9c8" d="M974 948v26h-26v-26z"/><path fill="#c7c7c7" d="M923 974h-26v-26h26z"/><path fill="#fefefe" d="M897 948v26h-26v-26z"/><path fill="#c7c7c7" d="M769 974h-26v-26h26z"/><path fill="#c8c8c8" d="M718 974h-26v-26h26z"/><path fill="#c7c7c7" d="M667 974h-26v-26h26z"/><path fill="#fefefe" d="M641 948v26h-26v-26z"/><path fill="#fefefd" d="M590 974h-26v-26h26z"/><path fill="#c7c7c7" d="M513 974h-25l-1-26h26z"/><path fill="#fefefe" d="M487 948v26h-25v-26z"/><path fill="#c8c8c8" d="M462 948v26h-26v-26z"/><path fill="#c7c7c7" d="M411 974h-26v-26h26z"/><path fill="#fefefe" d="M385 948v26h-26v-26z"/><path fill="#fefefd" d="M334 974h-26v-26h26z"/><path fill="#c8c8c7" d="M231 974v-26h26v26z"/><path fill="#c7c7c7" d="M155 974h-26v-26h26z"/><path fill="#fefefe" d="M129 948v26h-26v-26z"/><path fill="#c7c7c7" d="M52 795v-26h26v26zm922-26h-26v-26h26z"/><path fill="#cacac9" d="M974 692v26h-26v-26z"/><path fill="#c8c8c7" d="M948 641h26v26h-26z"/><path fill="#c7c7c7" d="M52 897v-26h26v26z"/><path fill="#c9c9c8" d="M52 846v-26h26v26z"/><path fill="#fefefe" d="M78 820H52v-25h26z"/><path fill="#c9c9c8" d="M820 52h26v26h-26z"/><path fill="#c8c8c8" d="M257 52h26v26h-26zm537 0v26h-26V52z"/><path fill="#fefefe" d="M795 78V52h25v26z"/><path fill="#c9c8c8" d="M308 52h26v26h-26z"/><path fill="#c9c9c9" d="M52 52h26v26H52z"/><path fill="#c8c8c8" d="M974 129v26h-26v-26z"/><path fill="#c9c9c9" d="M103 52h26v26h-26z"/><path fill="#fefefd" d="M974 52v26h-26V52z"/><path fill="#fdfdfd" d="M436 52h26v26h-26z"/><path fill="#c9c9c9" d="M359 52h26v26h-26z"/><path fill="#c9c9c8" d="M871 52h26v26h-26z"/><path fill="#c9c8c8" d="M615 52h26v26h-26z"/><path fill="#c9c9c9" d="M564 52h26v26h-26z"/><path fill="#fefefe" d="M103 52v26H78V52zm871 77h-26v-26h26zM488 52h25v26h-26z"/><path fill="#c9c9c9" d="m488 52-1 26h-25V52z"/><path fill="#fefefe" d="M78 513H52v-26h26z"/><path fill="#fffffe" d="M78 257H52v-26h26z"/><path fill="#fefefe" d="M769 52v26h-26V52z"/><path fill="#fffffe" d="M78 769H52v-26h26z"/><path fill="#fefefd" d="M769 974v-26h26v26z"/><path fill="#fefefe" d="M257 52v26h-26V52z"/><path fill="#fefefd" d="M385 78V52h26v26zM257 974v-26h26v26zm256 0v-26h26v26z"/><path fill="#fefefe" d="M564 52v26h-25V52zm410 845h-26v-26h26z"/><path fill="#fdfdfd" d="M180 52h26v26h-26z"/><path fill="#fefefd" d="M846 974h-26v-26h26zM692 52h26v26h-26zm-51 26V52h26v26zm-512 0V52h26v26z"/><path fill="#cacaca" d="M974 180v26h-26v-26z"/><path fill="#c7c7c7" d="m52 360 26 1v25H52z"/><path fill="#fefefe" d="M897 78V52h26v26z"/><path fill="#c8c8c8" d="M78 436H52v-26l26 1z"/><path fill="#fefefe" d="M78 410H52v-25h26z"/><path fill="#fffffe" d="M52 590h26v25H52z"/><path fill="#c7c7c7" d="M78 948H52v-26l26 1z"/><path fill="#fefefe" d="M78 922H52v-25h26z"/><path fill="#c8c8c7" d="M539 52v26h-26V52z"/><path fill="#c8c8c8" d="M974 871h-26v-25h26zM539 974v-26h25v26z"/><path fill="#c7c7c7" d="M283 974v-26h25v26z"/><path fill="#c9c9c8" d="M820 948v26h-25v-26z"/><path fill="#c9c9c9" d="M718 78V52h25v26z"/><path fill="#c9c9c8" d="M78 231H52v-25h26z"/><path fill="#c8c8c8" d="M948 334h26v25h-26z"/><path fill="#fefefe" d="M52 846h26v25H52z"/><path fill="#c9c9c8" d="M948 590h26v25h-26z"/><path fill="#c8c8c7" d="M974 564h-26v-25h26z"/><path fill="#fefefe" d="M974 487h-26v-25h26z"/><path fill="#c8c8c7" d="M78 487H52v-25h26z"/><path fill="#fefefe" d="M948 667h26v25h-26z"/><path fill="#c7c7c7" d="M78 743H52v-25h26z"/><path fill="#fefefe" d="M948 718h26v25h-26z"/><path fill="#c9c9c9" d="M974 103h-26V78h26z"/><path fill="#fefefe" d="M948 411h26v25h-26z"/><path fill="#fefefd" d="M718 974v-26h25v26z"/><path fill="#c9c9c8" d="M846 974v-26h25v26z"/><path fill="#cacac9" d="M155 78V52h25v26z"/><path fill="#fefefe" d="M974 180h-26v-25h26z"/><path fill="#fffffe" d="M948 206h26v25h-26z"/><path fill="#fefefe" d="M667 974v-26h25v26zM590 78V52h25v26zM78 308H52v-25h26z"/><path fill="#c9c9c8" d="M667 78V52h25v26z"/><path fill="#fefefe" d="M155 974v-26h25v26zM359 52v26h-25V52zm564 922v-26h25v26zm-512 0v-26h25v26z"/><path fill="#cacac9" d="M206 78V52h25v26z"/><path fill="#c9c9c9" d="M411 78V52h25v26z"/><path fill="#fefefe" d="M974 948h-26v-25h26z"/><path fill="#c9c9c8" d="M334 974v-26h25v26z"/><path fill="#fefefe" d="M871 52v26h-25V52z"/><path fill="#c9c9c8" d="M590 974v-26h25v26z"/><path fill="#fefefe" d="M308 52v26h-25V52z"/><path fill="#cacac9" d="M923 78V52h25v26z"/><path fill="#c9c9c8" d="M103 948v26H78v-26z"/><path fill="#fefefe" d="M78 359H52v-25h26z"/><path fill="#fffffe" d="M52 78h26v25H52z"/><path fill="#c8c8c8" d="M78 692h25v26H78z"/><path fill="#fefefe" d="M103 666v-25h26v25zm-25-25v-25l25-1v26z"/><path fill="#c8c8c7" d="M103 666h26v26h-26z"/><path fill="#c9c9c9" d="M103 615H78v-25h25zm820 205h25v26h-25z"/><path fill="#c9c9c8" d="M948 795h-25v-26h25z"/><path fill="#c9c8c8" d="M923 794v25h-26v-25z"/><path fill="#fefefe" d="M103 129H78v-25l25-1z"/><path fill="#c9c9c9" d="m103 103-25 1V78h25z"/><path fill="#fffffe" d="M78 155h25v25H78z"/><path fill="#c8c8c8" d="M103 180v-26l26 1v25z"/><path fill="#fefefe" d="m129 155-26-1v-25h18l8 9z"/><path fill="#c9c9c8" d="M948 615v26h-25v-9l-1-17z"/><path fill="#fefefe" d="M948 436v26h-25v-26zm0 51v26h-25v-26z"/><path fill="#c9c8c8" d="M923 513h25v26h-26z"/><path fill="#fefefd" d="M103 590H78v-26h25z"/><path fill="#c8c8c8" d="M103 564H78v-25h25z"/><path fill="#fefefe" d="M103 539H78v-26h25z"/><path fill="#c9c9c8" d="M948 564v26h-25v-26z"/><path fill="#fefefe" d="M78 283v-26h25v26z"/><path fill="#cacac9" d="m103 180-1 26H78v-26z"/><path fill="#c9c9c9" d="M78 462v-26h25v26z"/><path fill="#fefefe" d="M948 385v26h-25v-26z"/><path fill="#c9c9c9" d="M948 385h-25v-26h25zm0-77v26h-25v-26z"/><path fill="#fefefe" d="M78 334v-26h25v26z"/><path fill="#c9c9c9" d="M948 206v26l-25-1v-25z"/><path fill="#fffffe" d="m923 231 25 1v25h-25z"/><path fill="#c9c9c8" d="M923 257h25v26h-25z"/><path fill="#fffffe" d="M923 283h25v25h-25z"/><path fill="#fefefe" d="M948 897v26h-25v-26zm-742 51h-26v-25h26z"/><path fill="#c8c8c8" d="M206 948v-25h25v25z"/><path fill="#fefefe" d="M923 948h-26v-25h26z"/><path fill="#c7c7c7" d="M923 923h-26v25h-26v-26h26v-25h26z"/><path fill="#fffffe" d="M769 948h-26l1-25h25z"/><path fill="#fefefe" d="M718 948h-26v-25h26zm-51 0h-26v-25l26-1z"/><path fill="#c7c7c7" d="M641 923v25h-26v-26zm-51 25h-26v-26h26z"/><path fill="#fefefe" d="M513 948h-26v-25h26z"/><path fill="#c8c8c8" d="M487 923v25h-25v-25z"/><path fill="#fefefe" d="M462 923v25h-26v-25zm-51 25h-26v-25h26z"/><path fill="#c7c7c7" d="M385 923v25h-26v-26zm-51 25h-26v-26h26z"/><path fill="#fefefe" d="M231 948v-25h26v25zm-76 0h-26v-25l26-1z"/><path fill="#c7c7c7" d="M129 923v25h-26v-26z"/><path fill="#fefefe" d="M78 795v-26h25v26z"/><path fill="#fffffe" d="M948 769h-25v-26l25 1z"/><path fill="#c9c9c8" d="m948 744-25-1v-25h25z"/><path fill="#fefefe" d="M948 718h-25v-26h25zm-25-77h25v26h-25z"/><path fill="#fffffe" d="M78 897v-25l25-1v26z"/><path fill="#c9c9c9" d="m103 871-25 1v-26h25z"/><path fill="#fefefd" d="M103 846H78v-26h25z"/><path fill="#c9c8c8" d="M103 820H78v-25h25z"/><path fill="#fefefe" d="M820 78h26v25h-26zm-563 0h26v25h-26z"/><path fill="#fffffe" d="M769 78h26v25h-26z"/><path fill="#c9c9c8" d="M795 103V78h25v25z"/><path fill="#fefefe" d="M308 78h26v25h-26zm640 51v26h-25v-26zm-845-26V78h26v25z"/><path fill="#c9c9c8" d="M436 78h26v25h-26z"/><path fill="#fefefe" d="M359 78h26v25h-26zm512 0h26v25h-26z"/><path fill="#fff" d="M615 78h26v25h-26z"/><path fill="#fefefe" d="M564 78h26v25h-26z"/><path fill="#c9c9c9" d="M948 129h-25v-26h25z"/><path fill="#c9c8c8" d="M487 78h26v25l-26 1z"/><path fill="#fffffe" d="M487 78v25h-25V78z"/><path fill="#c9c9c8" d="M103 513H78v-26h25z"/><path fill="#c9c9c9" d="M103 257H78v-26h25z"/><path fill="#c9c9c8" d="M769 78v25h-26V78zM103 769H78v-26h25z"/><path fill="#c8c8c7" d="M769 948v-26h26v26z"/><path fill="#c9c9c9" d="M257 78v25h-26V78z"/><path fill="#c9c9c8" d="M385 103V78h26v26z"/><path fill="#c7c7c7" d="M257 948v-26h26v26zm256 0v-25l26-1v26z"/><path fill="#c9c8c8" d="M564 78v25h-25V78z"/><path fill="#c9c9c9" d="M948 897h-25v-26h25z"/><path fill="#c9c9c8" d="M180 78h26v26l-26-1z"/><path fill="#c7c7c7" d="M846 948h-26v-26h26z"/><path fill="#c9c9c9" d="M692 78h26v25h-26zm-51 25V78h26v26z"/><path fill="#cacac9" d="M129 103V78h26l-1 18h-1l-4 1-6 6z"/><path fill="#fefefe" d="M948 206h-25v-26h25zM78 385v-25l25-1v26z"/><path fill="#c9c9c9" d="M103 359H78v-25h25z"/><path fill="#c9c9c8" d="m923 103-26-1V78h26z"/><path fill="#c9c9c9" d="M78 385h25v26H78z"/><path fill="#fefefe" d="M78 411h25v25H78z"/><path fill="#c8c8c8" d="M78 897h25v25H78z"/><path fill="#fefefe" d="m78 923 25-1v26H78z"/><path fill="#fffffe" d="M539 78v25h-26V78z"/><path fill="#fff" d="M948 871h-25v-25h25z"/><path fill="#fffffe" d="M539 948v-25h25v25z"/><path fill="#fefefe" d="M283 948v-25h25v25zm537-25v25h-25v-25z"/><path fill="#fff" d="M718 103V78h25v25zM103 231H78v-25h25zm820 103h25v25h-25zm0 256h25v25h-25z"/><path fill="#fefefe" d="M948 564h-25v-25h25z"/><path fill="#c9c9c8" d="M948 487h-25v-25h25z"/><path fill="#fffffe" d="M103 487H78v-25h25z"/><path fill="#c8c8c8" d="M923 667h25v25h-25z"/><path fill="#fff" d="M103 743H78v-25h25zm820-640V78h25v25z"/><path fill="#c9c8c8" d="M923 411h25v25h-25z"/><path fill="#c8c8c8" d="M718 948v-26l25 1v25z"/><path fill="#fffffe" d="M846 948v-25l25-1v26zM155 96V78h25v25h-20l-5-5z"/><path fill="#c9c9c8" d="M948 180h-25v-25h25z"/><path fill="#c8c8c8" d="M667 948v-25h25v25z"/><path fill="#c9c9c9" d="M590 103V78h25v25zM103 308H78v-25h25z"/><path fill="#fff" d="M667 103V78h25v25z"/><path fill="#c8c8c8" d="M155 948v-25h25v25z"/><path fill="#cacac9" d="M359 78v25h-25V78z"/><path fill="#c8c8c8" d="M923 948v-25h25v25zm-512 0v-26l25 1v25z"/><path fill="#fff" d="M206 103V78h25v25zm205 0V78h25v25z"/><path fill="#fefefe" d="M334 948v-25l25-1v26z"/><path fill="#c9c9c9" d="M871 78v25h-25V78z"/><path fill="#fefefe" d="M590 948v-25l25-1v26z"/><path fill="#c9c9c8" d="M308 78v25h-25V78z"/><path fill="#fefefe" d="M103 692h26v26h-26z"/><path fill="#c8c8c7" d="M129 667v-25h26v26zm-26-26v-26h26v26z"/><path fill="#fefefe" d="M129 667h26v25h-26z"/><path fill="#fffffe" d="M129 615h-26v-25h26z"/><path fill="#fefefd" d="M897 820h26v26h-26z"/><path fill="#fefefe" d="m923 794-26 1v-26h26z"/><path fill="#fffffe" d="M897 795v25h-26v-25z"/><path fill="#c8c9ca" d="M103 103h26l1 13-9 9-1 4h-17z"/><path fill="#fefefe" d="m103 206 1-26h25v26zm26-26v-25h17l9 11v14z"/><path fill="#0f175a" d="M155 166v-1l-1-1-8-9-2-2-15-15-8-9v-4l9-9 12-12 1-1 6-6 4-1 2 2 5 5 1 2 19 19 5 6 21 21 4 4 21 22 1 1 2 2 23 24 2 2 24 25 2 2 23 24 25 26 1 1 1 1 1 1 1 1 1 2 2 2 1 1 19 19 30 32 13 14 5 5 1 1 23 25 16 16 8-19 4-6 1-3 4-4 15-31 2-3 4 15 6 16 4 15 9 43 2 8 5 20 1 5v4l13 54-1 5h-5l-15-5-44-14-25-8-6-3-6-1-37-12-18-6-28-10 7-3 3-1 5-2h1l2-1 5-2 2-1h1l2-1 3-1 6-2 8-3 18-7 12-5-7-5-1-2-2-1v-1l-1-1v-1q-1 0 0 0l-1-1-1-1-1-1-1-1-2-1v-1l-2-2-1-1-1-1-1-1-1-3-23-24-4-2-7-7-3-3-30-31-8-9-10-10-15-16-11-11-14-15-11-12-13-13-13-13-13-13-12-13-12-13-14-14-11-12z"/><path fill="#c0c1ca" d="m129 138 15 15v2h-15z"/><path fill="#fefefe" d="m922 615 1 17v9h-26v-26z"/><path fill="#c9c9c8" d="M922 615h-25v-25h26z"/><path fill="#c8c8c7" d="M923 436v26h-26v-26zm0 51v26h-26v-26z"/><path fill="#fefefe" d="M897 513h26l-1 26h-25z"/><path fill="#c8c8c8" d="M897 539h26v25h-26z"/><path fill="#c8c8c7" d="M129 590h-26v-26h26z"/><path fill="#fefefe" d="M129 564h-26v-25h26z"/><path fill="#c7c7c7" d="M129 539h-26v-26h26z"/><path fill="#fefefd" d="M897 564h26v26h-26z"/><path fill="#c7c7c7" d="M103 283v-26h26v26z"/><path fill="#fefefd" d="M103 462v-26h26v26z"/><path fill="#c8c8c8" d="M923 385v26h-26v-26z"/><path fill="#fefefe" d="M923 385h-26v-26h7l19 1z"/><path fill="#c9c9c9" d="m923 360-19-1h-7v-25h26z"/><path fill="#fefefd" d="M923 334h-26v-26h26z"/><path fill="#c9c9c8" d="M103 334v-26h26v26z"/><path fill="#fefefe" d="M923 206v25h-26v-25z"/><path fill="#c8c8c7" d="M897 231h26v26h-26z"/><path fill="#fefefe" d="M897 257h26v25l-26 1z"/><path fill="#c9c8c8" d="M897 283h26v25h-26z"/><path fill="#c7c7c7" d="M206 923h-26v-26h26z"/><path fill="#fefefe" d="M206 923v-26h25v26zm717-51v25h-26v-26h7zm-26 25v25h-26v-25z"/><path fill="#c7c7c7" d="M769 922h-25l-1-26h26z"/><path fill="#fefefe" d="m743 897 1 26-26-1v-25z"/><path fill="#c7c7c7" d="M718 897v26h-26v-26zm-77 26v-26h26v25z"/><path fill="#fefefe" d="M667 922v-25h25v26zm-26-25v25h-26v-25zm-51 25h-26v-25h26z"/><path fill="#c8c8c8" d="M564 897v26h-25v-26zm26 25v-25h25v25z"/><path fill="#c7c7c7" d="M513 923h-26v-26h26z"/><path fill="#fefefe" d="M487 897v26h-25v-26z"/><path fill="#c7c7c7" d="M462 897v26h-26v-26zm-51 25h-26v-26h26z"/><path fill="#fefefe" d="M385 897v25h-26v-25zm-51 25h-26v-25h26z"/><path fill="#c8c8c8" d="M308 897v26h-25v-26z"/><path fill="#c8c8c7" d="M334 922v-25h25v25z"/><path fill="#c7c7c7" d="M231 923v-26h26v26z"/><path fill="#c8c8c7" d="M129 923v-26h26v25z"/><path fill="#fefefe" d="M155 922v-25h25v26zm-26-25v25h-26v-25z"/><path fill="#c7c7c7" d="M103 795v-26h26v26z"/><path fill="#c8c8c7" d="M923 769h-26v-26h26z"/><path fill="#fffffe" d="M923 743h-26v-25h26z"/><path fill="#c8c8c7" d="M923 718h-26v-26h26zm-26-77h26v26h-26zM129 897h-26v-26h26z"/><path fill="#fff" d="M129 871h-26v-25h26z"/><path fill="#c9c8c8" d="M129 846h-25l-1-26h26z"/><path fill="#fefefe" d="M129 820h-26v-25h26z"/><path fill="#c8c8c8" d="M820 103h26v26h-26z"/><path fill="#c8c8c7" d="M257 103h26v26h-26zm512 0h26v26h-26z"/><path fill="#fefefe" d="M795 129v-26h25v26z"/><path fill="#c8c8c7" d="M334 103v26h-26v-26z"/><path fill="#c8c8c8" d="M923 129v26h-26v-26z"/><path fill="#fefefe" d="M436 103h26v26h-26z"/><path fill="#c9c9c9" d="M359 103h26v26h-26z"/><path fill="#c9c9c8" d="M871 103h26v26h-26zm-256 0h26v26h-26z"/><path fill="#c8c8c8" d="M590 103v26h-26v-26z"/><path fill="#fefefe" d="M897 129v-26l26 1v25z"/><path fill="#fffffe" d="m487 104 26-1v26h-26z"/><path fill="#c9c9c9" d="M487 104v25h-25v-26z"/><path fill="#fffffe" d="M129 513h-26v-25l26-1z"/><path fill="#c8c8c8" d="m129 487-26 1v-26h26z"/><path fill="#fffffe" d="M129 257h-26v-26h26z"/><path fill="#fefefe" d="M769 103v26h-26v-26z"/><path fill="#fffffe" d="M129 769h-26v-26h26z"/><path fill="#fefefe" d="M769 922v-25h26v25z"/><path fill="#c8c8c7" d="M795 922v-25h25v26z"/><path fill="#fefefe" d="M257 103v26h-26v-26zm128 26v-26l26 1v25z"/><path fill="#c9c9c9" d="M411 129v-26h25v26z"/><path fill="#fefefe" d="M257 922v-25h26v24zm256 1v-26h26v25zm51-820v26h-25v-26z"/><path fill="#c9c9c8" d="m923 872-19-1h-7v-25h26z"/><path fill="#fefefe" d="m185 129-5-5v-21l26 1v25z"/><path fill="#c9c9c9" d="M206 129v-26h25v26z"/><path fill="#fefefe" d="M820 922v-25h26v25z"/><path fill="#c8c8c8" d="M846 922v-25h25v25z"/><path fill="#fefefe" d="M692 103h26v26h-26zm-51 26v-26l26 1v25h8l-9 2-5-2z"/><path fill="#c9c9c9" d="M675 129h-8v-26h25v26z"/><path fill="#fafafc" d="m142 104-12 12-1-13z"/><path fill="#e2e1e1" d="m155 98-2-2h1z"/><path fill="#e1e1e1" d="M142 104"/><path fill="#c8c8c8" d="M923 206h-26v-26h26z"/><path fill="#c9c9c8" d="M103 385v-26h26v26z"/><path fill="#fefefe" d="M129 359h-26v-25h26zm-26 26h26v26l-26-1z"/><path fill="#c8c8c8" d="m103 410 26 1v25h-26z"/><path fill="#c9c9c8" d="M539 103v26h-26v-26z"/><path fill="#c9c9c9" d="M718 129v-26h25v26z"/><path fill="#c9c9c8" d="M129 231h-26v-25h26z"/><path fill="#fefefe" d="M923 487h-26v-25h26zm-26 180h26v25h-26z"/><path fill="#c8c8c7" d="M129 743h-26v-25h26z"/><path fill="#fefefd" d="M897 411h26v25h-26z"/><path fill="#c6c7cb" d="M180 103v21l-19-20v-1z"/><path fill="#e2e1e1" d="m161 103-1-1z"/><path fill="#fefefe" d="M923 180h-26v-25h26zm-333-51v-25l25-1v26zM129 308h-26v-25h26z"/><path fill="#fffffe" d="M359 103v26h-25v-25z"/><path fill="#fefefe" d="M411 922v-25h25v26z"/><path fill="#fffffe" d="M871 103v26h-25v-26z"/><path fill="#fefefe" d="M308 103v26h-25v-26z"/><path fill="#c7c7c7" d="M129 692h26v26h-26z"/><path fill="#fefefe" d="M129 641v-26h25l1 26z"/><path fill="#fffffe" d="M155 667v-26h25v9q-4 4-4 8l4 3v5l-1 1h-4l-1-1-1 1-4-1-2-2-2 3z"/><path fill="#c8c8c8" d="M169 667h10v3l-3 5c-10 1-11 2-5 12l9-6v9l-2 2h-23v-25z"/><path fill="#c9c9c8" d="M154 615h-25v-25h26z"/><path fill="#c8c8c7" d="M871 820h26v26h-25z"/><path fill="#c7c7c7" d="M897 795h-26v-26h26z"/><path fill="#c9c8c8" d="M871 795v25h-25v-25z"/><path fill="#c8c8c7" d="M129 180h26v26h-26z"/><path fill="#c6c7cb" d="m155 166 14 14h-14z"/><path fill="#e1e1e1" d="M144 155v-1l2 1zm10 9"/><path fill="#43a7d2" d="m326 343 29 31-9 11-9 14-2 2-5 9-13 26-9 25v4l-4 21-2 28 2 25 4 19v5l1 1v1l8 25 6 14 7 11 4 8 13 18 12 14 12 11 1 1 13 10q23 19 51 31l26 8 26 5 25 2 26-2 15-3 9-2 28-9 36-18 14-11 13-10 13-13 12-14 14-19 3-7 13-25 9-28 5-23 1-26-2-26-3-19-2-7-9-26q-10-25-25-45l-4-5-12-14-12-12-14-12-24-15-27-14-26-8-10-2-6-1-10-2-25-2-13 1-20 3-17 3-27 8-29 14-17 11-30-32 4-3 22-14 19-10 7-3 24-9 26-6 26-4 25-1 26 1 25 4 26 6 26 10h1l1 1h1l22 12 21 13 5 4 25 22 23 26 3 4 14 21 10 19 2 2v1l1 2v1l2 4v1l1 2 1 3 1 1v1l2 4v1l1 2v1l1 3v1l1 1 1 1v1l1 4 1 3v1l1 3v1l1 2 1 4v1l1 4v1l1 6v2l2 11 2 35-1 23-4 26-7 26-9 25-1 1-3 6-10 19-15 22-4 4-15 17-6 8-5 3q-19 18-41 32l-5 3-14 8-37 15-27 7-26 4-24 1-25-1h-1l-25-4-26-7-20-7-1-1h-1l-12-6-17-9-26-17-2-1-1-1-1-1-3-2-3-2-6-6-31-33-3-5-15-21-11-21-3-5-9-26-8-27-3-24-1-26 1-25 4-25 7-26 8-20v-3l1-1v-1l1-1 2-4 11-21q15-22 32-42"/><path fill="#fcd102" d="M378 450h-5l-2 2-1 1-3 1h-2l-2 1h-3l-5 3h-3l-7 2-4 4 5 4 17 6q6 2 3 6l-1 3q-4 24-2 46 4 42 28 73 24 32 59 49a144 144 0 0 0 116 5q27-10 48-29a150 150 0 0 0-1-229q-17-13-36-23-19-9-41-12-18-2-37-1-5 2-6-4l-5-23-4-5-1-1-1 2-3 7-1 2-1 2-1 2-7 12c-4 8-7 16-17 20l-11 5c-7 4-9 3-14-3l-17-15-1-1-3-6 7-5 6-5h1l3-2h1l4-1a188 188 0 0 1 114-18q35 5 65 22 14 8 26 19l16 14q9 7 16 16l24 42q16 33 16 68 1 22-3 43l-13 41q-9 20-24 38-18 24-42 40a189 189 0 0 1-100 35l-27-1q-26-2-50-12l-19-8h-2l-6-4h-2l-2-2h-1l-5-4h-1l-3-2h-2l-1-1v-1l-4-2v-1l-10-7-2-3q-1 0 0 0l-4-3-1-1h-1l-4-4v-1l-2-3-2-1v-1l-3-2-3-4-6-8h-1v-2h-2v-2l-3-4-2-3h-1l-1-1-2-2v-3l-4-6v-3q-13-26-18-55l-2-1v-16l-2-1v-27l2-16v-2l5-17 8-26 1-5 3-6 2-4 3-5 3-5 5-8 3-4 5-7 10-5h1l1 1 1 1 1 2 1 1 1 1 1 1 1 1 1 1 1 1 2 1v1l2 1v1q-1 5 4 5h1l1 1 1 1 1 1h1v2l1 4v2l-1 1-1 1-1 2h-1l-4 6-1 3-1 1v2h-1l-1 2-1 1-2 3-2 5h-1z"/><path fill="#f381b8" d="m387 480 37 12 5 2-3 17c1 10 0 19 5 28l5 12 8 13 18 18 13 8 11 5q13 6 28 5l25-4 12-6 14-8q11-7 17-18l8-11q1 0 0 0v-1l1-2 4-11 5-26-5-26-5-12-8-13-18-18-25-13-26-4h-8l-9-43 17-3 26 3 9 2 16 6 2 1 24 13 6 4 18 18 7 8 5 8 15 33 2 10 3 26-3 26-8 25-3 7-10 19-7 7-19 19-7 5-25 14-18 6-8 2-25 2-27-3-8-2-16-5-26-15-7-5-18-18-6-7-14-24-2-2-6-25-2-27 2-25z"/><path fill="#da040b" d="m461 504 44 14 15 5h5l1-5-13-54 1-3 18 3h1l7 4q13 9 21 22l1 2 1 3v1l1 3 1 7v4l1 3-5 24-3 4-1 2-1 1-1 1-1 2-2 2-1 1-6 5-1 1-3 2-14 6-14 2-3-1-17-3-2-1-4-2-1-1-2-1-1-1-3-2-8-8-1-1-1-2-1-1-1-1-3-6-1-2a71 71 0 0 1-3-29"/><path fill="#ebcf45" d="m483 330 4 5 5 23q1 6 6 4 19-1 37 1 22 3 41 12 19 10 36 23 19 17 33 39a156 156 0 0 1 14 120q-12 42-46 70-21 19-48 29a145 145 0 0 1-116-5q-35-17-59-49a145 145 0 0 1-26-119l1-3q3-4-3-6l-17-6-5-4 4-4 7-1v1l-3 1-7 3 28 10-3 14-2 15v11l2 25 1 9 6 16 1 4 11 20 2 3 1 3 21 25 8 7 19 14 2 1 24 12 26 6 25 3h14l13-3 24-6 26-13 24-18 2-3 4-4q14-9 21-25l12-26 7-26 2-25v-11l-3-15-7-25-10-25-3-2-1-3q-12-19-31-34l-17-12-3-1-23-11-26-7-25-2h-19l-3 1z"/><path fill="#fdfdfd" d="m244 257 13 14v10l-4 1h-13c-9 0-8-1-8 8v3l-18 15h-8v-25l25-1v-25zm15-51-2-2v-24h26v26z"/><path fill="#fefefe" d="m234 180-2-2-1-1v-22h26v25zm-28-51h25v26h-21l-4-4z"/><path fill="#fefafb" d="m513 460-1-5 1-19h26v19q2 9-7 7l-7-2c-4-1-8-4-12 0"/><path fill="#fdfdfd" d="M155 180h14l11 11v15h-25z"/><path fill="#fdfdfe" d="m194 205 12 13v13h-26v-25zm24 26 13 13v13h-25v-26z"/><path fill="#c9cfd1" d="m390 343 17-11 29-13v11l3 4-4 1-3-2-21 1v15l-8 7z"/><path fill="#fafafc" d="m293 308 15 16v10h-25l-1-23v-3z"/><path fill="#c8c9ca" d="m363 308-3 3-19-19-1-1-2-3-1-1-1-1-1-1-1-1v-2l25 1v20q0 6 4 5"/><path fill="#f3fbfc" d="M326 343a316 316 0 0 0-33 42l6-10 9-16v-25h10z"/><path fill="#fefbf6" d="m491 367 3-2h19v16l-17 2-4-14z"/><path fill="#c8c9ca" d="m308 257-23-24 2-2h21z"/><path fill="#ccc6c7" d="m436 496 25 8v1l-3 8h-22z"/><path fill="#cbcacf" d="M259 206h24v25zm75 76h-1l-25-26h15l2 1 1 1v1l6 6 2 2 1 1v1z"/><path fill="#c6c7cb" d="M234 180h23v24z"/><path fill="#fdfdf5" d="m394 422 1-1 2-2v-1l2 1 2 1 1 1v1h1v1h1v1l1 1 1 1 1 1 1 1 1 2-5 6h-18v-2l1-3h1l2-3 1-1v-1l1-1v-1l1-1z"/><path fill="#c6c7cb" d="M210 155h21v22z"/><path fill="#cbcacf" d="m456 385-8 19-15-17 6-2z"/><path fill="#fafafc" d="m268 282 14 15v11h-1l-22-24z"/><path fill="#cbcacf" d="M206 129v22l-21-21z"/><path fill="#e4cc4e" d="m438 385-6 2-23-24 17 15c5 6 7 7 14 3l11-5c10-4 13-12 17-20l7-12-14 30z"/><path fill="#c7c7c7" d="m366 488 3-14 18 6-4 7z"/><path fill="#272114" d="m462 373 13-28v-1l1-2 1-2 1-2 3-7 2-1 8 36 1 3-6-16-4-15-2 3-15 31-4 4v-2z"/><path fill="#fefafb" d="M436 496v17l-10-2 4-17z"/><path fill="#c6c7cb" d="m386 436 18 1v3l-18 7-1-10z"/><path fill="#f3fbfc" d="m347 385 9-11 3 3 1 1 6 6 1 2-7 3-3-4z"/><path fill="#fdfdec" d="M461 374v2l-1 3-4 6h-17z"/><path fill="#cbcacf" d="m194 205-14 1v-15z"/><path fill="#d0d0d6" d="M231 257v-13l13 13zm-13-26h-12v-13z"/><path fill="#272114" d="m367 386-1-2 4 2 23 24 1 3h-1l-1-1-1-1-1-1-1-1-1-1-3-3-1-1-1-1-1-1-1-1-1-1-1-1-1-1-1-1-1-1-1-1-1-2-1-1-1-1-1-1z"/><path fill="#d0d0d6" d="m268 282-9 2-2-2v-11z"/><path fill="#c6c7cb" d="m513 436-1 19-5-19z"/><path fill="#cbcacf" d="M282 308v-11l11 11z"/><path fill="#fafafc" d="m513 436-6-1-2-8h8z"/><path fill="#fdfdec" d="m385 437 1 10-8 3v-2l1-1 1-4h1l1-3 1-2z"/><path fill="#c0c1ca" d="M318 334h-10v-10z"/><path fill="#f381b8" d="M404 440v-3l5-7 7 5z"/><path fill="#e4cc4e" d="m403 357 8-8 7-3-6 5-7 5 3 6z"/><path fill="#fefbf6" d="M513 460c4-4 8-1 12 0l7 2v2z"/><path fill="#272114" d="m366 384-6-5z"/><path fill="#ebcf45" d="m354 458 5-2v1h-1l-2 1z"/><path fill="#e7d05c" d="M359 457v-1l3-1h2zm13-7h5l-5 2zm-18 8h2l-5 2v-1z"/><path fill="#e2e1e1" d="m286 231-1 2-2-2z"/><path fill="#272114" d="M399 418h-2v-2z"/><path fill="#e7d05c" d="m348 461 3-1zm21-8h2zm-2 1 2-1z"/><path fill="#272114" d="m460 379 1-2z"/><path fill="#e7d05c" d="M364 454h2l-2 1zm-7 4 1-1z"/><path fill="#272114" d="m408 428-1-1z"/><path fill="#e1e1e1" d="M231 177"/><path fill="#d0d0d6" d="M340 291"/><path fill="#e4cc4e" d="M408 362"/><path fill="#272114" d="M401 420h-1zm1 1h-1zm1 1h-1zm1 1h-1zm1 1h-1zm1 2"/><path fill="#d0d0d6" d="m337 287 1 1zm-3-3"/><path fill="#272114" d="M394 414"/><path fill="#d0d0d6" d="M333 283"/><path fill="#272114" d="m396 415 1 1z"/><path fill="#c8c8c7" d="M897 615v26h-26v-26z"/><path fill="#fefefe" d="M897 615h-26v-25h26z"/><path fill="#fefefd" d="M897 436v26h-26v-26z"/><path fill="#fefefe" d="M897 487v26h-26v-26z"/><path fill="#c7c7c7" d="M871 513h26v26h-26z"/><path fill="#fefefe" d="M871 539h26v25h-26z"/><path fill="#fdfdfd" d="M155 590h-26v-26h26z"/><path fill="#c8c8c8" d="M155 564h-26v-25h26z"/><path fill="#fefefe" d="M154 539h-25v-26h26v8z"/><path fill="#c7c7c7" d="M871 564h26v26h-26z"/><path fill="#fefefe" d="M129 283v-26h26v7l-2 19z"/><path fill="#c8c8c7" d="M129 462v-26h26v26z"/><path fill="#fefefe" d="M897 385v25h-26v-25z"/><path fill="#c9c9c8" d="m871 410 26 1v25h-26z"/><path fill="#c8c8c7" d="M897 385h-26v-26h26z"/><path fill="#fefefe" d="M897 359h-26v-25h26z"/><path fill="#c8c8c7" d="M897 334h-26v-26h26z"/><path fill="#fefefd" d="M129 334v-26h26v26z"/><path fill="#c9c9c9" d="M897 206v25h-26v-25z"/><path fill="#fffffe" d="M871 231h26v26h-26z"/><path fill="#c7c7c7" d="M871 257h26v26h-26z"/><path fill="#fefefe" d="M871 283h26v25h-26zM206 897h-26v-26h26z"/><path fill="#c8c8c8" d="M206 897v-26h25v26z"/><path fill="#c8c8c7" d="M897 897h-26v-26h26z"/><path fill="#fffffe" d="M769 897h-26v-26h26z"/><path fill="#c8c8c7" d="M743 871v26h-25v-26z"/><path fill="#fefefe" d="M718 871v26h-26v-26zm-51 26h-26v-26h25z"/><path fill="#c8c8c7" d="m667 897-1-26h26v26zm-26-26v26h-26v-25zm-51 26h-26v-25l26-1z"/><path fill="#fefefd" d="M564 872v25h-25l-1-23v-1l10-3z"/><path fill="#fffffe" d="M590 897v-25l25-1v26z"/><path fill="#fdfdfe" d="M513 897h-26l-1-24 18 2h1l9 1z"/><path fill="#c8c9ca" d="m486 873 1 24h-25v-26z"/><path fill="#fefefe" d="M462 871v26h-26v-26zm-51 26h-26v-26h21q5-1 5 5z"/><path fill="#c8c8c7" d="M385 871v26h-26v-26z"/><path fill="#c7c7c7" d="M334 897h-26v-26h26z"/><path fill="#fffffe" d="M308 871v26h-25v-26z"/><path fill="#fefefe" d="M334 897v-25l25-1v26z"/><path fill="#fffffe" d="M231 897v-26h26v26z"/><path fill="#fefefe" d="M129 897v-26h7l19 2v24z"/><path fill="#c9c9c8" d="M155 897v-26h25v26z"/><path fill="#fefefe" d="M129 795v-26h26v19q2 8-7 7z"/><path fill="#fffffe" d="M897 769h-26v-26h26z"/><path fill="#c9c9c8" d="M897 743h-26v-25h26z"/><path fill="#fefefd" d="M897 718h-26v-26h26z"/><path fill="#fefefe" d="M871 641h26v26l-26-1z"/><path fill="#c9c8c8" d="m155 871-19-1h-7v-25h26z"/><path fill="#fefefe" d="M155 846h-26v-26h26z"/><path fill="#c8c8c8" d="M155 820h-26v-25h19q9 1 7-7v-19h25v26h-21q-4 0-4 4z"/><path fill="#fefefe" d="M820 129h26v26h-26zm-563 0h26v21q1 6-5 5h-21zm512 0h26v25l-26 1z"/><path fill="#c9c8c8" d="M795 154v-25h25v26z"/><path fill="#fefefe" d="M308 129h26v26l-26-1zm563 0h26v26h-20q-6 1-6-6z"/><path fill="#c9c9c8" d="M436 129h26v26h-26z"/><path fill="#fefefe" d="M359 129h26v26h-20q-6 1-6-6zm256 0h26v26h-25zm-51 0h26v25h-26z"/><path fill="#c8c9ca" d="M487 129h26v15l2 5-27 2-1-2z"/><path fill="#fdfdfd" d="M487 129v22l-23 7 2-4h-4v-25z"/><path fill="#c7c7c7" d="M155 513h-26v-26h26z"/><path fill="#fefefe" d="M155 487h-26v-25h26z"/><path fill="#c8c8c7" d="M155 257h-26v-26h26zm614-128v26h-25l-1-26z"/><path fill="#c7c7c7" d="M155 769h-26v-26h26zm614 128v-26h26v26z"/><path fill="#fffffe" d="M795 897v-25h25v25z"/><path fill="#c7c7c7" d="M257 129v26h-26v-26z"/><path fill="#c9c9c8" d="M385 155v-26h26v26z"/><path fill="#fefefe" d="M411 155v-26h25v26z"/><path fill="#c7c7c7" d="M257 897v-26h26v26z"/><path fill="#c8c8c7" d="m513 897 1-21 10-1 12-2 2 1 1 23z"/><path fill="#c9c9c9" d="M564 129v25l-9 2-16-5-1-1 1-21z"/><path fill="#fefefe" d="M897 871h-26v-25h26z"/><path fill="#c8c8c7" d="M820 897v-26h26v26z"/><path fill="#fefefe" d="M846 897v-25l25-1v26z"/><path fill="#c8c8c8" d="M692 129h26v26h-26zm-51 26v-26h20l5 2 1 24z"/><path fill="#fff" d="m667 155-1-24 9-2h15l2 3v23z"/><path fill="#fefefe" d="m692 132-2-3h2zm205 74h-26v-26h26zM129 385v-26h25l1 26z"/><path fill="#c9c9c8" d="M154 359h-25v-25h26z"/><path fill="#c8c8c7" d="M129 385h26l-1 26h-25z"/><path fill="#fefefe" d="M129 411h26v25h-26z"/><path fill="#fdfdfd" d="m539 129-1 22-23-2-2-5v-15z"/><path fill="#fffffe" d="M718 155v-26h25l1 26z"/><path fill="#fefefe" d="M155 231h-26v-25h26z"/><path fill="#c9c8c8" d="M897 487h-26v-25h26z"/><path fill="#c8c8c8" d="m871 666 26 1v25h-26z"/><path fill="#fefefe" d="M155 743h-26v-25h26z"/><path fill="#c9c9c8" d="M897 180h-26v-21q0-4-4-4h-21v-26h25v20q0 7 6 6h20z"/><path fill="#c9c9c9" d="M590 154v-25h25l1 26h-26z"/><path fill="#c9c9c8" d="M155 308h-26v-25h26zm204-179v20q0 7 6 6h20v25h-26v-21q0-4-4-4h-21v-26zm52 768v-21q0-5-5-5h-21v-25h26v21q0 4 4 4h21v26z"/><path fill="#c9c8c8" d="M308 129v26h-21q-4 0-4 4v21h-26v-25h21q6 1 5-5v-21z"/><path fill="#fdfdfd" d="M155 692h25v26h-25z"/><path fill="#c9c9c9" d="M154 615h26v26h-25z"/><path fill="#fbfbfc" d="M180 690v-24h6l11 26h-17z"/><path fill="#d0d0d6" d="M186 666h-5l-1-5v-21l2-4v10z"/><path fill="#fbfbfc" d="M180 650v11l-4-3zm-11 16-4 1 2-3z"/><path fill="#e1e1e1" d="M175 667v-1z"/><path fill="#cacaca" d="m179 670 1 11-9 6c-6-10-5-11 5-12zm1 20v2h-2z"/><path fill="#fdfdfe" d="m182 636-2 4v-25h-25v-25h25v-26h-25v-25h20q5 1 5-5v-21h1l1 75z"/><path fill="#fefefe" d="M872 846h-26v-26h25zm-1-51h-25v-26h25zm-25 0v25h-26v-25z"/><path fill="#f9fdfb" d="m655 359 12 12v2c0 12 0 12 12 12l4 5q16 20 25 45l-16 1v-25h-14l-11-17-1-9h-7l-18-18v-8z"/><path fill="#fafefd" d="m641 730 5-3a222 222 0 0 0 46-35v26h-21q-3-1-4 3l-1 22h-25z"/><path fill="#c7cccc" d="m715 360-23-26h26v25h25v26h-11z"/><path fill="#fdfdfd" d="m411 281-6 3-20-1v-26h26z"/><path fill="#fdfdf5" d="m617 332 24 15v12h-11l-15-11v-5c0-9 0-9-9-9h-16v-14l12 6z"/><path fill="#c7c7c7" d="m280 615 3 5v21h-26v-26z"/><path fill="#fdfdfd" d="m742 622 3-6 1-1h23v26h-26z"/><path fill="#c8c8c8" d="m617 282-1-25h26v26h-23z"/><path fill="#c9c8c8" d="m745 410-1-2v-1l-1-3v-18h26v26h-22z"/><path fill="#fefefe" d="m283 406-2 4-1 1h-23v-26h26z"/><path fill="#d0cfc3" d="M590 320v14h16c9 0 9 0 9 9v5q-25-13-51-22v-16z"/><path fill="#c7cccc" d="m359 713 26 17v13h-26v-24l-6-2c-1-4-6-5-4-9h3l3 2 1 1 1 1z"/><path fill="#cecdc6" d="M692 426v10l16-1 9 26-17 1q-6-24-19-45l-2-6h3q2 11 10 15"/><path fill="#fdfdfe" d="m414 745 1 1 20 7v16h-25v-24z"/><path fill="#c6c9c9" d="m463 310 17-3 20-3h13v4h-16c-11 0-12 1-10 12v2l-25 4zM294 641l14 21-2 5-24-1 1-25z"/><path fill="#fafefd" d="M364 308q-5 1-5-5v-20h26v11z"/><path fill="#cacac9" d="m662 308-21-13v-12h26v25z"/><path fill="#fafefd" d="m615 257 1 25-26-10v-15zm102 406 15-22h11v26l-25-1z"/><path fill="#fafdf7" d="m349 616 1 2 2 1v1l1 2 1 1 1 1v1l2 2v1l2 2v3l-1 8h-12l-13-18-4-8 5-1z"/><path fill="#c6c9c9" d="m412 281-1-24h25v15z"/><path fill="#fafdf7" d="m375 647 5 4v1h1v1l3 2h1v12h-13l-1-1-12-11v-14h11l1 1v1l2 2v1z"/><path fill="#fafefd" d="M280 615h-23v-25l14-1z"/><path fill="#fafdf7" d="m309 461 8-25h17l-1 4-2 9-3 8v2l-1 1v2h-2z"/><path fill="#c6c9c9" d="M257 411h23v1l-1 1v3l-8 20h-14z"/><path fill="#fafdf7" d="m463 310-1 16-23 8-3-4v-11z"/><path fill="#cccecb" d="m693 622-15 19h-11l-1-10 12-16h12z"/><path fill="#c7cccc" d="M769 615h-23l10-25h13z"/><path fill="#c8c8c7" d="m667 655-13 13-13-1v-10l18-16h8z"/><path fill="#fafefd" d="M747 411h22v25h-13l-1-1-1-1v-2l-1-2v-1l-1-2v-1l-2-4v-1l-1-1-1-4-1-1z"/><path fill="#cccecb" d="M346 385h11l3 4v5l-6 10-1 1-5 6h-1l-12-1v-9l2-2z"/><path fill="#cecdc6" d="m317 590-8-25 16-1 2 2v1l2 6v1l5 16z"/><path fill="#fefdf6" d="M564 311v15l-26-5q0-7 2-12 3-2 8-2l6 1z"/><path fill="#fafefd" d="m590 707-27 9 2-15 6-2q9-5 19-5zm102-15 6-8 16-17h4v25z"/><path fill="#cecdc6" d="m564 701-1 15-10 2h-14v-14z"/><path fill="#fefdf6" d="M700 462h17l2 6-1 14q0 6-5 5h-7zM325 564l-17-1v-24l12-1h1v5l2 5v2l1 5 1 3z"/><path fill="#cecdc6" d="m308 461 17 1v6l-1 2-1 6-1 2-2 10-12-1z"/><path fill="#f3fbfc" d="M436 707a171 171 0 0 1-51-30l12 5 14 6 3 4h22z"/><path fill="#c7cccc" d="m692 334-25-22v-4h25z"/><path fill="#c3cdd1" d="m591 707-1-13 5-2h16l5-2 6-2 19-11v1l-14 11z"/><path fill="#cecdc6" d="M548 307q-5 0-8 2-2 5-2 12l-25-1v-12h21q4 1 4-3zm158 180h7q5 1 5-5l1-14 3 19q-4 1-4 5v21l-10-1z"/><path fill="#c8c8c7" d="m320 538-12 1v18l-4-18q4-1 4-5v-21l10 1 2 10v1l1 10v2z"/><path fill="#fafefd" d="m564 760 26-6v15h-26z"/><path fill="#c7cccc" d="m436 708 1-10q7-2 14 3 4 2 11 1v14zm0 61v-16l26 7v9z"/><path fill="#fafefd" d="M436 272v-15h26v9z"/><path fill="#c7cccc" d="M590 257v15l-26-7v-8zM334 436h-16l12-26h4z"/><path fill="#c9cfd1" d="m709 590-13 25q-5 0-4-4v-21z"/><path fill="#fafefd" d="M317 590h17v7l1 15v2l-5 1-7-11z"/><path fill="#f3fbfc" d="M257 436h13l-6 26h-7z"/><path fill="#fafefd" d="M769 590h-13l6-26h7z"/><path fill="#c7cccc" d="m271 589-14 1v-26l6-1zm485-152 13-1v26h-5l-2-1v-2l-1-3v-1l-1-4-1-2v-1l-1-3v-1l-1-3z"/><path fill="#fdfdec" d="M692 590v21q-1 4 4 4l-3 7-3-7h-12l9-17z"/><path fill="#c9cfd1" d="m563 760 1 9h-26v-5z"/><path fill="#f9fdfb" d="M462 769v-8l25 4v4z"/><path fill="#f3fbfc" d="M564 257v8l-26-3v-5z"/><path fill="#c3cdd1" d="M462 266v-9h25v5z"/><path fill="#e5f7f9" d="M462 716v-2l26 4h25v5l-25-2z"/><path fill="#c3cdd1" d="m302 513 2-26h4v26zm10 154 31 33h-2l-2-2h-5q1-7-5-6h-9l7-3-6-9zm412-154-2 26h-4v-26z"/><path fill="#d9dde2" d="m766 538 1-23-2-35-2-10 3 10 3 7 1 26-1 25z"/><path fill="#f3fbfc" d="M724 513h-6v-21q0-4 4-5zm-422 1 6-1v21q0 4-4 4zm339-231v11l-22-11z"/><path fill="#d0d0d6" d="m386 294-1-11 20 1z"/><path fill="#c3cdd1" d="M283 406v-21h11z"/><path fill="#f3fbfc" d="M294 641h-11v-20z"/><path fill="#c9cfd1" d="M743 641h-11l10-19z"/><path fill="#c3cdd1" d="M257 462h7l-4 25h-3zm509 76h3v26h-7z"/><path fill="#e5f7f9" d="m263 562-6 2v-25l3-1z"/><path fill="#c9cfd1" d="M487 769v-4l1-1 25 2v3z"/><path fill="#c3cdd1" d="M513 723v-5h26l-1 3z"/><path fill="#f3fbfc" d="m488 262-1-5h26v4zm255 123v18h-1l-10-18zM513 769v-3l24-2 1 5zm25-464q-1 4-4 3h-21v-4z"/><path fill="#c3cdd1" d="M513 261v-4h25v4z"/><path fill="#c9cfd1" d="M679 385c-12 0-12 0-12-12v-2z"/><path fill="#c3cdd1" d="M359 641v14l-12-14zm282-282v-12l14 12z"/><path fill="#fafefd" d="m769 487-3-7-2-11-1-2 1-5h5z"/><path fill="#fafdf7" d="M667 655v-14h11z"/><path fill="#c3cdd1" d="m590 754 30-10-5 3-14 5z"/><path fill="#f3fbfc" d="M641 678v-11l13 1z"/><path fill="#c3cdd1" d="M372 667h13v10z"/><path fill="#fafefd" d="M385 734v-4l17 10v4h-5l-11-10z"/><path fill="#f3fbfc" d="M590 320v-2l27 14-15-6z"/><path fill="#e5f7f9" d="M718 539h4l-4 23zm-461-52h2l-2 26zm452 103 4-13 3-13 3-2zM308 487l-4-1 4-21z"/><path fill="#d9dde2" d="M257 513h1l2 25-3 1z"/><path fill="#c3cdd1" d="M641 730v2l-8 5-6 1z"/><path fill="#e5f7f9" d="M402 744v-4l12 5h-4zm137-23v-3h14zM334 410h-4l5-9zm230-99-10-3 10 2z"/><path fill="#c3cdd1" d="m343 700 6 6z"/><path fill="#d9dde2" d="M312 667h-5l2-5z"/><path fill="#e1e1e1" d="M667 308v4l-5-4z"/><path fill="#d9dde2" d="M718 667h-4l3-4 1 3zm46-205-1 5-1-6zm-14-40 2 4zm-3-11v3l-2-4z"/><path fill="#e2e1e1" d="m715 360 3 3z"/><path fill="#d9dde2" d="m742 404 1 3z"/><path fill="#c3cdd1" d="m355 710-3-2zm-3-2h-3v-2z"/><path fill="#d9dde2" d="m760 451 1 4zm-4-14 1 4zm1 4 1 3zm1 4 1 3z"/><path fill="#e5f7f9" d="m337 399-2 2z"/><path fill="#d9dde2" d="m761 456 1 3zm-482-40v-2z"/><path fill="#c3cdd1" d="m359 713-2-1z"/><path fill="#d9dde2" d="m744 407 1 2zm15 42 1 2zm-6-19 1 2zm-1-3 1 2z"/><path fill="#c3cdd1" d="M357 712"/><path fill="#e2e1e1" d="M488 764v-1z"/><path fill="#e5f7f9" d="M416 746"/><path fill="#cecdc6" d="M308 563"/><path fill="#c3cdd1" d="M371 666"/><path fill="#e1e1e1" d="M746 615"/><path fill="#d9dde2" d="m749 420 1 1zm6 15"/><path fill="#e1e1e1" d="M617 282"/><path fill="#d9dde2" d="m747 415 1 1z"/><path fill="#eed041" d="m692 590-5 8-10 17-11 16-8 10-17 16-11 9-15 11-17 9-18 8q-9 2-16 6l-25 4-26 2-26-1-25-6-1-1-1-1-29-11-5-4 19 8q24 11 50 12l27 1q28-1 54-11a189 189 0 0 0 112-102l13-41q5-21 3-43-1-35-16-68l-24-42q-6-9-16-16l-16-14q-12-11-26-19-30-17-65-22-25-3-51 0-33 4-63 18l-4 1v-1l12-8 4-1 23-8 26-4 25-2 25 2 26 5q26 8 51 21l16 12 10 8 10 10 8 7 8 10 11 16 3 6q12 21 19 45l6 25 2 26-2 26-11 41z"/><path fill="#fefdf6" d="M385 677v-10h12l2 1h1l1 1 1 1h1v1h1l1 1 3 3 2 1 1 3v9l-14-6z"/><path fill="#fdfdec" d="m435 335-12 8-1 1h-1l-2 2h-1l-7 3v-15l21-1z"/><path fill="#ebcf45" d="m324 555-1-8v-2l2 1q4 29 18 55v2h-2v-1l-12-28v-2l-2-5v-2l-2-4v-3z"/><path fill="#e7d05c" d="m411 678-1-2h4l2 2h2l6 4h2l5 4 29 11 1 2-7-2-18-5z"/><path fill="#ebcf45" d="M323 478v-2l2-8 2-8 1-2v-1l3-8 2-9h3l-8 26-5 17z"/><path fill="#d1ccb8" d="M395 667h-10v-9h2l1 1 7 6zm-60-53v-2l8-3h2l2 3v4z"/><path fill="#d0cfc3" d="M368 641h-9l1-8h1l4 2 3 5z"/><path fill="#ebcf45" d="M320 525v-21h1v21zm3-40-2 16-1-1 1-10zm-2 52v-9l2 1v14h-1l-1-4zm50-146-10 5v-2l5-5 5 1z"/><path fill="#e7d05c" d="M361 394v2l-5 7-2 1 6-10z"/><path fill="#ebcf45" d="m395 665-6-6 8 6z"/><path fill="#e7d05c" d="m323 485-2 4-1-1 2-10 1 5z"/><path fill="#ebcf45" d="m365 635-4-2-1-3-2-2 1-1zm-12-228-5 8-1-1 1-3h1z"/><path fill="#e7d05c" d="M321 528v6l-1-9h1zm15-88h-2v-5l3-2v2z"/><path fill="#ebcf45" d="m385 405 3 3 1 1v1q-5 1-4-5"/><path fill="#eed041" d="M413 676h-3l-2-2v-2z"/><path fill="#ebcf45" d="m481 331-3 7zm-91 97-2 3 3-6v2z"/><path fill="#eed041" d="m424 682-6-3z"/><path fill="#ebcf45" d="M337 435v-2l3-4zm6 170 4 5-2-1-2-2zm2-185-3 5-1-1 2-3zm51-5 1 1-1 2h-1l-1-4h2m-48 1-3 5v-2l1-2zm37 240-4-2zm-31-33-1-2 3 3h-1zm0-218 2-1-3 4v-2z"/><path fill="#e7d05c" d="M320 500v3h-1zm1 43h2v4zm26 73v-3l2 2z"/><path fill="#ebcf45" d="M368 641v-1l3 1zm-26-216-2 4v-1zm11 194-2-2v-1z"/><path fill="#e7d05c" d="M408 672v2l-3-2z"/><path fill="#ebcf45" d="M400 668h-1l-2-1v-1zm-13-10h-2v-3zm-7-215-1 4zm2-3-1 3zm-7 206h-1v-3z"/><path fill="#eed041" d="M407 672h-2l-1-1v-1z"/><path fill="#e4cc4e" d="m419 346 2-2z"/><path fill="#ebcf45" d="m483 330-2 1 1-2z"/><path fill="#e7d05c" d="M373 643v2l-2-2z"/><path fill="#ebcf45" d="m387 431-1 3z"/><path fill="#e7d05c" d="m345 609 2 1v2zm-2-5v2l-2-3zm15 23-2-2h2z"/><path fill="#ebcf45" d="M364 454h-2zm8-2h-2l2-2z"/><path fill="#e7d05c" d="M397 666h-2v-2z"/><path fill="#eed041" d="m416 678-2-2z"/><path fill="#ebcf45" d="m478 338-1 2zm-1 2-1 2z"/><path fill="#e7d05c" d="M395 419h1v1zm-21-26 1 2z"/><path fill="#ebcf45" d="m476 342-1 2z"/><path fill="#e7d05c" d="M378 448"/><path fill="#ebcf45" d="M381 652h-1zm-6-5"/><path fill="#e7d05c" d="M400 668v1zm-49-52v1l-1-1zm4 7"/><path fill="#ebcf45" d="M358 625"/><path fill="#e7d05c" d="M359 627v-1zm45 43h-1z"/><path fill="#ebcf45" d="m380 400 1 1z"/><path fill="#e7d05c" d="m375 395 1 1zm1 1 1 1zm1 1 1 1z"/><path fill="#ebcf45" d="m378 398 1 1zm1 1 1 1z"/><path fill="#e7d05c" d="m371 391 1 1z"/><path fill="#ebcf45" d="m381 401 1 1zm2 2 1 1z"/><path fill="#e7d05c" d="M391 411"/><path fill="#e4cc4e" d="m422 344 1-1z"/><path fill="#e7d05c" d="m394 422-1 1z"/><path fill="#ebcf45" d="m393 423-1 1z"/><path fill="#e7d05c" d="M391 426h1zm4-11v-1z"/><path fill="#ebcf45" d="m384 437-1 1z"/><path fill="#cecac1" d="m590 387 17 11q19 15 31 34l1 4h-18l-7-8 1-18h-19l-6-4z"/><path fill="#cecdc6" d="m409 619-21-25-1-4h18l6 8v11q-2 8 6 6h12l7 5v16l-7-3-12-7z"/><path fill="#ccc6c7" d="m444 564-8-13v-13l19 1q9 2 7-7l2 1 1 2v4l-3 4v21z"/><path fill="#cdc7c6" d="M532 464v-2q9 2 7-7v-19l11-1 14 9v18h-20l-7 2 1 1z"/><path fill="#fdfdfd" d="M590 550v3l-8 11h-18v-25h26zm-26 32-13 8h-12v-26h25z"/><path fill="#ccc6c7" d="m475 590-13-8v-18h25v26zm107-128 8 13v12h-26v-25z"/><path fill="#fefbf6" d="M621 436h18l3 1 10 25h-11v15l-15-33z"/><path fill="#cec9c5" d="m653 564-12 26h-19l10-19 4-7z"/><path fill="#fefdf6" d="M653 564h-17l7-25h17zm-114 95-12 3h-14v-17l25-2z"/><path fill="#cecac1" d="M513 645v16l-26-2v-17z"/><path fill="#fefbf6" d="m366 488 17-1-3 25-16 1v-10zm7 76-6-16-1-9h17l6 25zm286-77 3 15v11h-16l-2-26z"/><path fill="#cecac1" d="M646 513h16l-2 25h-16zM513 381v-16l25 2 1 17z"/><path fill="#cec9c5" d="M383 539h-16l-3-25 16-1z"/><path fill="#fdfdf5" d="M622 590h18q-6 15-21 25l-4-3 1-15z"/><path fill="#fefdf6" d="m486 642 1 17-25-7v-11zm53-258v-16l25 6v11l-16 1z"/><path fill="#fdfdf5" d="m615 619-1 3-24 18v-19l6-5h15q4 0 4 3"/><path fill="#cec9c5" d="m540 659-2-16 8-2h18v12z"/><path fill="#cecac1" d="M659 487h-15l-3-10v-15h11z"/><path fill="#fefafb" d="M590 386v19l-25-12-1-1v-7zM436 636v-16l26 15v6l-26-1z"/><path fill="#ccc6c7" d="m589 621 1 19-2 1h-24v-6z"/><path fill="#fefafb" d="M385 564h4l2 2 14 24h-18q-2-1-2-3zm154 32-25 3-1-9h26z"/><path fill="#d3c7ca" d="M513 590v9q-14 2-26-4v-5zm-77-52h-5c-5-9-4-18-5-28l10 2z"/><path fill="#ccc6c7" d="m595 487 4 26h-9v-26z"/><path fill="#fefafb" d="M590 513h9l-4 26h-5z"/><path fill="#cdc7c6" d="M513 436v-9l26 4v5zm52 146-1-18h18q-6 11-17 18"/><path fill="#fefafb" d="M462 564v18l-18-18z"/><path fill="#d3c7ca" d="M616 619q-1-3-5-3h-15l19-19v15l4 3z"/><path fill="#fefafb" d="M582 462h-18v-18zm14-52h19l-1 18zM429 615h-12q-8 2-6-6v-11z"/><path fill="#d3c7ca" d="M564 385v6l-16-5zM462 641v-6l16 5z"/><path fill="#f7f7f9" d="M564 635v6h-18z"/><path fill="#d3c7ca" d="M539 596v-6h12z"/><path fill="#f3f2f6" d="M431 539h5v12zm56 51-1 5-11-5zm108-103h-5v-12zm-56-51v-5l10 4z"/><path fill="#d3c7ca" d="M593 539h2l-4 11-1-4zm-3 14q1 0 0 0m-26-161 1 1z"/><path fill="#cdc7c6" d="M590 513v26h-26v25h-25v26h-26v-23l14-3c6 0 12 1 14-6l3-2 1-1 6-5 1-1 2-2 1-2 1-1 1-1 1-2 3-4 5-24z"/><path fill="#fdfdfd" d="M590 513h-24v-3l-1-4-1-8-1-2v-2l1-7h26z"/><path fill="#fefbf6" d="M564 462v25l-3 3q-8-13-21-22l-7-4 5 1-1-1 7-2zm-77 102h-25v-21l3-4 3 2 1 1 1 1 1 2 1 1q2 8 8 8l3 2 1 1 2 1 1 1z"/><path fill="#e2e1e1" d="m464 533-2-1-4-19 3-9q-1 15 3 29m77 25c-2 7-8 6-14 6zm-48 4 17 3-1 1-14-2zm34 2-14 3v-1zm-47-10q-6 0-8-8zm71-4-6 5zm-83-9-3-2v-4z"/><path fill="#f3f2f6" d="M513 566v1l-4-2h4"/><path fill="#e2e1e1" d="m561 537-3 4zm-74 24v-2l4 2zm-4-5-3-2zm61 0-3 2z"/><path fill="#cdc7c6" d="m565 506 1 4z"/><path fill="#e2e1e1" d="m554 547-2 2z"/><path fill="#fefbf6" d="m563 494-1-3z"/><path fill="#ccc6c7" d="m563 496 1 2z"/><path fill="#e2e1e1" d="m465 535-1-2z"/><path fill="#fefbf6" d="m562 492-1-2z"/><path fill="#e2e1e1" d="m491 561 2 1zm64-16-1 2zm3-4-1 2zm-88 2"/><path fill="#fdfdec" d="M564 641h24l-24 12z"/><path fill="#d0cfc3" d="M385 564v23l-11-19-1-4z"/><path fill="#d1ccb8" d="M438 641h24v11zm149-256h-23v-11zM436 636v4l-19-14 12 7zm-27-17"/><path fill="#0e1759" d="m186 666-3-24V385l-1-5 4-21 3-6 3-3 1-10 2-5 11-17 8-10 21-16h1l2-1 12-8 3-1 4-1 2 3 22 24 1 3-27 16-5 3-1 1-1 1-2 1-1 1-1 1-1 1-1 2h-1l-3 3-2 3-1 2-2 2-2 3-1 1-5 2v10l-1 4-1 1-1 7v1l-2 9v236l-1 3 6 43q1 7 8 4v2l2 2h-1l2 2 1 1 1 2q2 7 8 8l2 2 1 1 1 1 2 1q5 12 17 11l3 1 10 5 1 1 10 6 14 8 26 16 5 2 2 1 9 6 6 2 1 2 2 1 14 8 38 23 14 8h1l13 8 2 2 22 12 6 4 16 9q21 9 41 5l14-4 21-11 5-3 17-10 36-21 48-29 25-14 1-1 26-15 16-9 9-6 4-2 27-17 5-3v-1l3-2 3-3 8-10 1-1 1-2 1-1 1-2 4-4 2-9 3-20V386l-4-18v-1l-1-2q0-9-7-15l-2-4-1-1-1-1-1-2-2-2-1-1-1-1-1-2-1-1-1-1q0 1 0 0l-2-1-1-1-1-1-2-1-1-1-1-1-2-1-1-1-4-2-2-1-1-1-2-1-1-1-2-1-2-1-1-1-2-1-7-4q-3-7-10-6l-2-1-2-1-1-1-2-1-1-1-2-1-2-1q-3-6-9-5l-3-2-2-1-5-3-1-1-2-1-1-1-2-1-4-2q-9-10-21-12l-3-2-2-1-1-1q-1 0 0 0l-9-5-10-6-2-1q-9-10-22-13l-1-1-2-1-2-1-5-3-2-1c-5-5-8-11-16-9l-1-1-2-1-1-1-2-1-2-1-2-1-1-1-2-1-1-1q-6-6-15-8l-1-1q-6-8-16-9l-2-1-1-1-7-3q-11-6-23-7c-5 0-9-4-14-1l-17 5-3 3h-11q-5 0-8 5l-6 7-2 2-3 2q-8-1-13 5l-3 2q-7 2-10 9h-1c-7-2-12 3-16 6q-9 9-23 10 2 6-3 7l-1 2-5 3-2 1-1 1-2 1-11 1-3 1-5 9-6 4v-1l-1 1-2 1-1 1-2 1-7-3-1-1h-1v-1l-1-1-2-2q-1-7-6-7l-1-1-2-1v-1l-5-6v-5l2-1 3-2 12-7 1-2 1 1 1-1 2-1 1-1 2-1 4-2 1-1 2-1 1-1 3-2v1l2-2v1l1-2 1 1 2-2 5-3 6-3 1-1 2-1 1-1h1l1-1 2-1 11-6 21-11 4-4 1-1 3-1 1-1 2-1 1-1 2-1 1-1 4-2 2-1 7-4 2-1 1-1q6 1 8-5l2-1 6-3 1-1 2-1 6-1 24-8q20-4 39-1l15 5q9 4 19 5h1l1 1 2 1q0-1 0 0l2 1 3 1 6 3 3 3 3 1 1 1 2 1 1 1 3 1 1 1 2 1 3 2 2 1 2 2q7 11 18 10l2 1 19 11 4 2 22 13 20 12 5 3 26 15 13 7 12 7 25 15 3 2h1l1 1 22 13 15 12 11 12 10 16 9 23 1 1v1l3 19-1 9v241l-1 13 1 9-3 15-2 7-10 19-9 14-11 11-13 11-24 14-2 1-27 16-18 10-6 4-27 16-8 5-16 9-17 10-34 19c-3 2-8-1-7 5v-1l-1 1-2 1-2 1-2 1-1 1-2 1-8 5-2 1v1h-2c-4 0-9-1-9 6h-1l-2 1q-5-1-5 3l-5 3-2 1-2 1-2 1h-1l-12 2-4-1q-12-5-19 8h-9q-4-4-9-1l-19-3-9-1h-2v-1q-3-5-7-2l-1-1-2-1-3-1-2-1-4-2-3-2-2-1-2-1-13-8-4-2-5-3-17-10-51-30-2-1-2-1-1-1-2-1-1-1-4-2-2-1q-5-5-11-6l-1-1-25-15-7-4-18-11h-1l-25-15h-1l-25-15-13-11-10-10-11-15z"/><path fill="#c8c8c7" d="M206 283v25h-26v-26z"/><path fill="#c9c8c8" d="M206 283v-26h25v25z"/><path fill="#d0d0d6" d="m236 292-3-2c0-9-1-8 8-8h9l1 1-12 8z"/><path fill="#c6c7cb" d="m214 308-8 10v-10z"/><path fill="#e1e1e1" d="m232 290 3 2-2 1zm18-7h3z"/><path fill="#c9c9c9" d="M283 206v-26h25v26z"/><path fill="#c9c9c8" d="M155 231v-25h25v25z"/><path fill="#c8c8c8" d="M206 231v26h-26v-26z"/><path fill="#c9c9c8" d="M308 334v25h-25v-25z"/><path fill="#cbcacf" d="m256 327 26-16 1 23h-26z"/><path fill="#fbfbfc" d="m335 270 1 1c2 3 3 7 7 3l2-1 1-1h1l1-1h1l1-1 5-3 3-1v17l-25-1z"/><path fill="#fefefe" d="M283 359h25l-9 16-6 10h-10zm0-153h25v25h-24z"/><path fill="#fbfbfc" d="M323 256h-14l-1-26h26v4l-11 7-3 2-2 1-4 3 4 2z"/><path fill="#fdfdfd" d="m458 513 4 19q2 9-7 7l-19-1v-25z"/><path fill="#0f144b" d="M326 260q5-1 6 6zm8 8"/><path fill="#e7d05c" d="M390 428"/><path fill="#fdfdec" d="m462 373-1 1zm-101 21v-5l7-3-1 3z"/><path fill="#e7d05c" d="m366 389 1-3 4 4zm31 28-1-1z"/><path fill="#fdfdfe" d="m840 666 3-15 2-35 1-1h25v26h-25v25z"/><path fill="#c9c9c9" d="M871 615h-25a63 63 0 0 1 2-25h23zm0-179v26h-22l-3-2v-24z"/><path fill="#c9c8c8" d="M871 487v26h-25l-1-1v-20l1-5z"/><path fill="#fefefe" d="M846 513h25v26h-26z"/><path fill="#c9c9c8" d="M846 539h25v25h-24l-2-10v-13zm-691 25h25v26h-25z"/><path fill="#c9c8c8" d="M180 513v21q1 6-5 5h-21l1-18v-8z"/><path fill="#fefefe" d="M847 564h24v26h-23l-3-5v-16z"/><path fill="#c8c8c8" d="M180 282h-26l1-19v-7h25z"/><path fill="#fdfdfd" d="M155 462v-26h26v51h-1v-21q0-4-4-4z"/><path fill="#c9c9c9" d="M871 385v25h-26l1-21q0-4 4-4z"/><path fill="#fdfdfe" d="m845 411 26-1v26h-25v24l3 2q2 12 11 12v1l-6 3 3 9h-12z"/><path fill="#fefefe" d="M871 385h-21q-4 0-4 4l-1 20a306 306 0 0 1 1-50h25z"/><path fill="#c9c9c9" d="M871 359h-25v-25h25z"/><path fill="#fefefd" d="M871 334h-25v-26h25z"/><path fill="#c9c9c9" d="M155 334v-26h25v26z"/><path fill="#fff" d="M871 206v25h-25v-25z"/><path fill="#c9c9c9" d="M846 231h25v26h-25z"/><path fill="#fffffe" d="M846 257h25v26h-25z"/><path fill="#c9c9c9" d="M846 283h25v25h-25z"/><path fill="#c7c7c7" d="M206 871h-26v-25h26z"/><path fill="#fffffe" d="M206 871v-25h25v25z"/><path fill="#c8c8c8" d="M769 871h-26v-25h26z"/><path fill="#fefefe" d="M743 846v25h-25v-25z"/><path fill="#c8c8c7" d="M718 846v25h-26v-25z"/><path fill="#c9c9c8" d="M667 871h-25v-25h26z"/><path fill="#fffffe" d="M667 871v-25h25v25z"/><path fill="#fefefe" d="M641 846v25l-26 1v-25l1-1z"/><path fill="#c9c9c9" d="M615 847v24l-25 1v-11l-1-12v-1l2-1 4-2z"/><path fill="#fbfbfc" d="m589 849 1 12v10l-26 1-2-8 1-1 2-1 5-3 5-3 2-1h1l10-6z"/><path fill="#0f144b" d="M523 874q7-13 19-8l4 1 12-2-10 5-10 3h-2l-12 2z"/><path fill="#c6c7cb" d="m548 870 10-5h1l2-1h1l2 8z"/><path fill="#e1e1e1" d="M536 873h2v1z"/><path fill="#0f1440" d="m523 874-10 1-9-1h-1l-18-2-3-2h-3l-3-2 9 1 28 4z"/><path fill="#c8c8c7" d="M504 875"/><path fill="#f3f2f6" d="m477 869 3 2h-18v-8l3 1 2 2h1l7 3zm4 2h2z"/><path fill="#c8c9ca" d="M462 863v8h-26v-23l13 8 2 1 2 1 3 2 4 2z"/><path fill="#fefefe" d="M385 846v25h-26v-25zm-51 25h-26v-25h26z"/><path fill="#c9c9c9" d="M334 871v-25h25v25z"/><path fill="#c8c8c8" d="M308 846v25h-25v-25z"/><path fill="#c8c8c7" d="M231 871v-25h26v25z"/><path fill="#fff" d="M180 846v25h-25v-25z"/><path fill="#c8c8c8" d="M871 769h-25v-26h25z"/><path fill="#fffffe" d="M871 743h-25v-25h25z"/><path fill="#c9c9c9" d="M871 718h-25v-20l1-6h24z"/><path fill="#c9c9c8" d="M846 666v-25h25v25z"/><path fill="#c8c8c8" d="M180 846h-25v-26h25z"/><path fill="#c7c7c7" d="m180 795 26 1v25h-26z"/><path fill="#fefefe" d="M206 794h-26v-25h26zm-51-25v-26h25v26z"/><path fill="#fffffe" d="M180 795v25h-25v-21q0-4 4-4z"/><path fill="#c9c9c8" d="M820 155h26v25h-26zm-25-1v26h-26v-25z"/><path fill="#fff" d="M795 180v-25h25v25z"/><path fill="#c8c8c8" d="m308 155 26 1v25h-26z"/><path fill="#fbfbfc" d="M436 155h26l1 4-2 2-2 1-1 1h-1l-5 3-2 1-8 5-1 1-2 1-4 1z"/><path fill="#e1e1e1" d="m463 159-1-4v-1h4z"/><path fill="#c9c9c8" d="M615 155h25v25h-26z"/><path fill="#cbcacf" d="m577 167-5-2-2-1-2-2q0 1 0 0h-2v-1l-2-1v-6h26v21h-1l-1-1-2-1-1-1-3-2z"/><path fill="#0f144b" d="m463 159 23-8h1l27-2h6l17 2h1l25 9v1q-10-1-19-5l-15-5q-19-2-39 1l-24 8-6 1z"/><path fill="#e2e1e1" d="M488 151"/><path fill="#fefefe" d="M180 513h-25v-26h25l1 2z"/><path fill="#c9c8c8" d="M180 487h-25v-25h21q4 0 4 4z"/><path fill="#fefefe" d="M180 257h-25v-26h25zm589-102v25h-26l1-25z"/><path fill="#fffffe" d="M769 871v-25h26v25z"/><path fill="#c9c8c8" d="M795 871v-25h25v26z"/><path fill="#fdfdfd" d="M385 180v-25h26v25z"/><path fill="#cbcbcb" d="M411 180v-25h25l-1 20-3 3-2 1h-1l-11-1v1h4v1z"/><path fill="#fefefe" d="M257 871v-25h26v25z"/><path fill="#f3f2f6" d="m564 160-9-4 9-2z"/><path fill="#e2e1e1" d="M539 151"/><path fill="#c9c9c9" d="M846 846h25v25l-25 1z"/><path fill="#fefefe" d="M846 846v25h-26v-25zM692 155h26v25h-26zm-51 25v-25h26v23l-6 2z"/><path fill="#c9c8c8" d="M667 178v-23h25v25z"/><path fill="#cacac9" d="M871 206h-25v-26h25zM154 359h26v26h-25z"/><path fill="#fefefe" d="M180 359h-25v-25h25z"/><path fill="#fdfdfd" d="M155 385h25v-26h6l-4 21v37l-1 18-1-19q0-5-4-5h-22z"/><path fill="#c9c9c9" d="M155 411h21q4 0 4 5l1 20h-26z"/><path fill="#c8c9ca" d="M521 149h-4z"/><path fill="#c9c9c8" d="M718 180v-25h25v25z"/><path fill="#fff" d="m857 487-3-9 6-3v-1q-9 0-11-12h22v25zm-11 180 25-1v26h-25z"/><path fill="#c9c9c8" d="M180 743h-25v-25h25z"/><path fill="#fff" d="M871 180h-25v-25h21q4 0 4 4z"/><path fill="#fefefd" d="M590 175v-20h25v24l-16 1h-1l-3-2-2-2h-1z"/><path fill="#fefefe" d="M180 308h-25v-25h25z"/><path fill="#fdfdfd" d="M359 180h26v24l-4 3-22-1z"/><path fill="#fffffe" d="M334 180v-25h21q4 0 4 4v21z"/><path fill="#fbfbfc" d="m359 803 51 31 1 12h-26v-14l-2-11-5-1h-18z"/><path fill="#fefefe" d="M436 848v23h-21q-4 0-4-4v-21h21zM308 155v25h-25v-21q0-4 4-4z"/><path fill="#cacaca" d="m197 692 11 15-2 11h-26v-26z"/><path fill="#070d3c" d="m181 436 1-23v-32l1 5-1 261v-58l-1-59v-93"/><path fill="#e2e1e1" d="M181 512h-1z"/><path fill="#6d7190" d="M182 588"/><path fill="#c9c9c8" d="M846 846h-26v-26h26z"/><path fill="#c7c7c7" d="M846 795h-26v-26h26z"/><path fill="#c8c8c8" d="M820 795v25h-25v-25z"/><path fill="#cccecb" d="M692 426q-8-4-10-15h10z"/><path fill="#fdfdf5" d="m659 385-18-17v-1z"/><path fill="#d1ccb8" d="m641 367-10-8 10-1zm26 27-8-9h7z"/><path fill="#c8c9ca" d="m666 757-49 29-2-4v-13h14l12-1q12-4 10-13c-3 0-1 7-5 5l-3-13-2-1-3-2-18-1 7-5 6-1 8 6h25l1-21c9 3 4 9 2 14 12 1 12 1 12 7h-13l-2 7-4 1v1l4 1zm-11-4h2v-2z"/><path fill="#c8c8c8" d="M692 692h26v26h-26z"/><path fill="#cacaca" d="M681 743c0-6 0-6-12-7 2-5 7-11-2-15q0-4 4-3h21l-1 25zm-40 0-8-6 8-5z"/><path fill="#fffffe" d="M769 385h-26v-26h26z"/><path fill="#fdfdfd" d="m693 334-1-26h26v26z"/><path fill="#fefefe" d="M743 359h-25v-25h25z"/><path fill="#c8c9ca" d="M359 283v-17l16-9h10v26z"/><path fill="#cbcbcb" d="M411 257h-26v-7h1l25-14z"/><path fill="#fefefe" d="M257 615v26h-26v-13l2-13zm26 26-2 25-24 1v-26z"/><path fill="#c8c8c7" d="M769 641v-26h26v26zm-26 25v-25h26v26z"/><path fill="#fdfdfd" d="M666 283h-25v-26h11l8 4 6 5z"/><path fill="#fbfbfc" d="M641 257h-26v-9l1-12 5 2 2 1 2 1v1h1l15 10z"/><path fill="#fefefe" d="M769 411v-26h26v25z"/><path fill="#c8c8c7" d="M283 359v26h-26v-26zm-26 26v26l-25-1-1-25z"/><path fill="#fefefe" d="m338 744-4-2v-24l19-1 6 2v24h-19zm34 20-14-8v-1l1-12h26v21z"/><path fill="#c7c7c7" d="m353 717-19 1v-20h4l1 3 2-1h2l6 6v2c-2 4 3 5 4 9"/><path fill="#fafafc" d="M385 744v-9h1l11 10z"/><path fill="#c7c7c7" d="M385 744h17l8 1 1 24h-26z"/><path fill="#cacaca" d="M410 769h25v26h-12l-14-8z"/><path fill="#fdfdf5" d="m513 320-25 2-1-2c-2-11-1-12 10-12h16z"/><path fill="#c8c8c7" d="M257 667h26v25h-26z"/><path fill="#fefefe" d="M283 692v-25h25v25zm409-384h-25v-25h25z"/><path fill="#c6c7cb" d="M691 283h-25v-17h2l1 1h1l2 1 3 2 16 10z"/><path fill="#cbcbcb" d="m616 236-1 12v9h-25v-26l16-1 8 4z"/><path fill="#fdfdfd" d="m743 666 26 1v23h9l-4 3-26-1-5-3z"/><path fill="#c9c9c8" d="M743 667v22l-3 3h-22v-26z"/><path fill="#e7d05c" d="m360 630 1 2-1 1zm-6-8"/><path fill="#fefefe" d="M411 242v-6l10-6 15 2v25h-25v-12l3-1z"/><path fill="#e7d05c" d="M373 646h1zm12 10"/><path fill="#c9c9c8" d="M257 615h-24l-2-6v-19h26z"/><path fill="#e7d05c" d="m327 462-2 6v-5zm4-13-3 8zm-3 10"/><path fill="#fefefe" d="m232 410 25 1v25h-26z"/><path fill="#fafdf7" d="m659 641 7-10 1 10z"/><path fill="#fefefe" d="M795 615h-26v-25h26z"/><path fill="#fdfdec" d="m630 666 11-8v9z"/><path fill="#c8c8c8" d="m769 411 26-1v27l-26-1z"/><path fill="#fdfdec" d="m341 424-1 4-3 5-3 2v-25h1l12 1v4l-1 2-1 1-2 3z"/><path fill="#e7d05c" d="M353 405v2l-4 4zm-24 169 8 23-3-5v-2zm-2-7 2 5zm-2-6 2 4-2-1z"/><path fill="#fdfdec" d="M564 700q7-4 16-6l18-8 17-9 1 13-5 2h-16l-5 2q-10 0-19 5l-6 2z"/><path fill="#fdfdf5" d="m513 706 25-2 1 14h-26z"/><path fill="#e7d05c" d="m324 555 1 2z"/><path fill="#c8c8c7" d="M321 539"/><path fill="#e7d05c" d="M321 537h-1zm2 12"/><path fill="#fdfdf5" d="m320 500-1 4 1 1-2 8h-10v-26l12 1 1 2z"/><path fill="#e7d05c" d="m324 470-1 6z"/><path fill="#cecac1" d="m411 679 25 12-22 1-3-4zm25 13 18 5 8 2v3q-7 1-11-1-7-4-14-3z"/><path fill="#cecdc6" d="m616 690-1-13 15-11 11 1v10l-19 11z"/><path fill="#fdfdf5" d="m706 538 2-25h10v25z"/><path fill="#e7d05c" d="m318 514 2-9v18z"/><path fill="#c7c7c7" d="M564 769h26v26h-26z"/><path fill="#cacaca" d="m590 754 11-3 14-4v22h-25z"/><path fill="#fefdf6" d="M462 702v-2l25 5 1 13-26-4z"/><path fill="#fefefe" d="M436 794v-25h26v25z"/><path fill="#c8c8c8" d="M436 257v-25h26v25z"/><path fill="#fefefe" d="M590 231v26h-26v-25zm125 333-3 13-4 13h-14l1-5 7-21z"/><path fill="#fdfdec" d="m702 564-7 21-1 5h-2l3-10q2-9 6-16z"/><path fill="#cccecb" d="m337 597 4 5v1l2 3v3l-8 3-1-15z"/><path fill="#cecdc6" d="M337 597h-3v-5z"/><path fill="#c8c8c7" d="M231 436h26v26h-26z"/><path fill="#c7c7c7" d="M795 590h-26v-26h26z"/><path fill="#fdfdfd" d="M257 590h-26v-26h26z"/><path fill="#fefefd" d="m769 436 26 1v25h-26z"/><path fill="#c8c8c7" d="M513 769h26v26h-26z"/><path fill="#fefefe" d="M539 795v-26h25v26z"/><path fill="#c9c8c8" d="M462 794v-25h25v25z"/><path fill="#fefefe" d="M538 257h-25v-26h25z"/><path fill="#c9c9c8" d="m539 257-1-26h26v26z"/><path fill="#fefefe" d="M462 257v-25h25l1 25z"/><path fill="#cecac1" d="m488 718-1-13 26 1v12z"/><path fill="#fdfdfd" d="M334 698v20l-26-1v-25h21q6-1 5 6"/><path fill="#c9c9c8" d="M320 692h-12v-25h3l10 13 6 9z"/><path fill="#c7cccc" d="m341 700-2 1v-3z"/><path fill="#cecdc6" d="m702 564 5-25 12-1v24l-3 2z"/><path fill="#fefefe" d="m770 513-1-26h26v26z"/><path fill="#c9c8c8" d="M770 513h24v25l-25 1v-1z"/><path fill="#fefefd" d="M231 462h26v25h-26z"/><path fill="#fefefe" d="m769 539 25-1v26h-25z"/><path fill="#c8c8c7" d="M257 564h-26v-26l26 1z"/><path fill="#fefefe" d="M487 794v-25h26v26z"/><path fill="#c9c9c8" d="M488 257v-26l25 1v25z"/><path fill="#c8c8c8" d="M795 487h-26v-25h26z"/><path fill="#fdfdfd" d="M615 769v-23l5-3 21 3v22l-12 1z"/><path fill="#c8c8c7" d="m231 488 26-1v26h-26z"/><path fill="#fffffe" d="M231 513h26v26l-26-1z"/><path fill="#e7d05c" d="m397 667 2 1zm-54-58v-2l2 2zm0-188 2-3v2zm2-3 1-1z"/><path fill="#cdc7c6" d="m593 539-3 7v-7z"/><path fill="#fefefd" d="m509 566 4 2v22h-26v-26h8z"/><path fill="#ccc6c7" d="m562 492-1-2 3-3-1 7zm-67 72h-8v-3h4l2 1z"/><path fill="#fafafc" d="M257 667v25h26l-1 19-13-6-17-11-2-1v-1h-1l-1-1-2-2-7-8h-1l-1-2-1-1-1-2-1-1-1-1v-1l-1-1-9-29v-2h8l1 26z"/><path fill="#cbcbcb" d="M641 846h-25l-1-12 1-2 34-19 17-10v17h-22q-4 0-4 4z"/><path fill="#c9c9c8" d="m667 178 5 2h-5v26l-22 1-4-3v-24h20z"/><path fill="#fafafc" d="m462 231-26 1v-11l19-12 3-2 27-14h2l1 13-1 1-19-1q-6 1-6 8z"/><path fill="#c8c8c7" d="M257 743v26h-26v-26z"/><path fill="#fefefe" d="m769 743 2-1 8 1 16 2v24h-26z"/><path fill="#c9c9c9" d="m771 281-3-2 1-22h26v26l-22-1z"/><path fill="#fdfdfd" d="m301 769 7 4v22h-25v-26z"/><path fill="#c8c8c8" d="m718 773 7-4h18v26h-25z"/><path fill="#fefefe" d="m487 794 1 1v23l-5 2h-15l-6-3v-22z"/><path fill="#fdfdfd" d="M718 692h22l3 4v16l-10 6h-15zm128 6v20h-26l-1-12 9-14h18z"/><path fill="#cacaca" d="m282 711 1-19h25v26h-15l-10-6z"/><path fill="#c8c8c8" d="M539 795h25v12l1 10-6 3h-20z"/><path fill="#fdfdfe" d="M590 769h25v13l2 4-15 9-12-1z"/><path fill="#fefefd" d="m731 257-13-8v-17l25-1v26z"/><path fill="#fdfdfd" d="M180 334v-26h26v10l-11 17z"/><path fill="#c8c9ca" d="M846 308v26l-15 1-10-16v-11z"/><path fill="#fdfdfe" d="M667 820v-17l16-9h9v26z"/><path fill="#fdfdfd" d="m795 728 13-11 12 2v24h-24z"/><path fill="#c8c9ca" d="m359 803 1 17h-26v-25h11l2 1 4 2 1 1 2 1 1 1 2 1z"/><path fill="#cbcbcb" d="m218 717 13 11v15l-25 1v-26l7 1z"/><path fill="#cacaca" d="m241 338 1-1 1-1 1-1 1-1 1-1h1l10 1v25h-25l-2-3 1-4v-1l2-3 2-3 1-1 2-3z"/><path fill="#fdfdfd" d="m785 338 1 1 1 1 2 2 1 2 1 1 1 1v1l2 3 1 6-1 3h-25v-25h11l2 1q0-1 0 0h1v1h1v1zM351 225l-3 2-1 1h-1l-3 2h-9v-24h25l1 13v1l-2 1-1 1h-1l-1 1h-1l-1 1z"/><path fill="#c8c9ca" d="m687 232-20-13v-13h25v25z"/><path fill="#c9c9c9" d="m810 307-15-12v-12h25v25z"/><path fill="#fbfbfc" d="M257 769v-26l26 15v11z"/><path fill="#c8c9ca" d="M769 743v26h-26l-1-10z"/><path fill="#cbcbcb" d="M564 232v-20l3-5h1l1 1 15 8v1h1l2 1 1 1 2 1v11z"/><path fill="#070d3c" d="m844 382 1 28v206l-2 35-1-9 1-13V388l1-8zM220 622V386l2-8v237l-1 7z"/><path fill="#fbfbfc" d="M692 742v-24h26v9zm-51-562v24l-19-10-2-1-6-5 2-8z"/><path fill="#cbcbcb" d="M308 718h26l-1 23-26-15z"/><path fill="#fbfbfc" d="m565 817-1-10v-12h26l4 5-12 7zm204-560-1 22-25-15v-7z"/><path fill="#cbcacf" d="M462 795v22l-24-14-1-1-1-7v-1h26z"/><path fill="#fafafc" d="M525 835q-21 4-40-6l3-4 1-5h24v13z"/><path fill="#c8c9ca" d="M308 795v-22l25 15 1 1v6z"/><path fill="#cbcacf" d="M743 712v-16l-3-4 3-3 5 3 26 1-27 17z"/><path fill="#fbfbfc" d="M718 773v21h-26v-5z"/><path fill="#cbcbcb" d="m525 835-12-2v-13h26v11z"/><path fill="#c9c9c9" d="M777 690h-8v-23h16v17l-3 3-3 2z"/><path fill="#0f1440" d="m802 368 4 18v249l-3 20-2 9q-1 3-4 3l4-10 1-5 3-14V399z"/><path fill="#fafafc" d="M410 769v17q-19-9-38-22h13v5z"/><path fill="#c6c7cb" d="M718 232v17q-13-6-26-15v-3z"/><path fill="#cbcacf" d="M846 692h-17l9-19c7 1 6-3 6-7h2z"/><path fill="#d0d0d6" d="m180 334 15 1-2 5-7 19h-6z"/><path fill="#fbfbfc" d="m831 335 15-1v25h-5l-1-1z"/><path fill="#cbcacf" d="m795 728 1 15-1 2-16-2-8-1z"/><path fill="#fafafc" d="m802 368 1 17h-8v-25l1-2 5 7z"/><path fill="#f7f7f9" d="M231 743v-14l25 14zm450 0h9l-24 14v-7l2-7z"/><path fill="#c8c9ca" d="M222 385v-8l1-1 1-7v-1l1-4h1l1-3h4v24z"/><path fill="#f7f7f9" d="M667 206v13l-22-12z"/><path fill="#cbcacf" d="m360 219-1-13 22 1-2 2-2 1-2 1-1 1-2 1-1 1h-1l-5 3z"/><path fill="#d0d0d6" d="m800 657-3 10-1 1v2l-1 1-1 2-1 1-8 10v-17l9-1 2-9z"/><path fill="#f7f7f9" d="m615 834 1 12-1 1-19-2 3-3 2-1 1-1h1l1-1 2-1 2-1 1-1h1z"/><path fill="#0f144b" d="m421 230-10 5-25 13q5-1 3-7 14-1 23-10c4-3 9-8 15-6z"/><path fill="#d0d0d6" d="M432 846h-21l-1-12 17 9z"/><path fill="#f7f7f9" d="M795 283v11l-22-12zm-62 21 2 1 2 1 1 2h-20v-12l7 3 2 1 2 1v1h1l2 1z"/><path fill="#0f1440" d="M220 622h1l1 17v5l10 28q-6 3-7-4l-6-43z"/><path fill="#f3f2f6" d="M539 831v-11h20z"/><path fill="#0f144b" d="M487 193h-2l3-3 17-5c5-3 9 1 14 1q11 1 23 7h-3l-1-1-25-4z"/><path fill="#d0d0d6" d="m489 820-1 5-3 4-17-8 15-1 5-1z"/><path fill="#0f144b" d="m484 193-24 12 6-7q3-5 8-5z"/><path fill="#d0d0d6" d="M283 769v-10l18 10z"/><path fill="#f7f7f9" d="m742 759 1 10h-18z"/><path fill="#f3f2f6" d="m218 717-5 2-7-1 2-11z"/><path fill="#cbcacf" d="m421 230 7-5 1-1 7-3v11z"/><path fill="#c6c7cb" d="m820 719-12-2 11-11z"/><path fill="#0f144b" d="m436 221-7 3q3-6 10-8l3-2q5-6 13-5z"/><path fill="#c7cccc" d="m359 743-1 12h-1l-2-2-6-2 5-8z"/><path fill="#c9cfd1" d="m841 360 5-1-1 23-1-3z"/><path fill="#f3f2f6" d="m308 718-1 8-14-8z"/><path fill="#d0d0d6" d="M718 727v-9h15z"/><path fill="#0f144b" d="m375 257-19 10 5-9 3-1 11-1z"/><path fill="#c0c1ca" d="m354 743-5 8-9-6v-2z"/><path fill="#0f144b" d="m613 188 7 5q-11 1-18-10l1-1z"/><path fill="#0f1440" d="m252 694 17 11q-12 1-17-11"/><path fill="#0f144b" d="m415 188-4 4-21 10 24-14zm226 63-15-10q13 3 22 13zm50 29-16-10q12 2 21 12h-1z"/><path fill="#f3f2f6" d="m810 307 10 1 1 11z"/><path fill="#d0d0d6" d="M743 257v7l-12-7z"/><path fill="#f3f2f6" d="m436 795 1 7-12-7z"/><path fill="#0f144b" d="m614 234-8-4-8-5c8-2 11 4 16 9"/><path fill="#f7f7f9" d="m257 334-10-1 1-1 1-1 1-1 5-3z"/><path fill="#e2e1e1" d="M334 795v-6q6 2 11 6z"/><path fill="#0f144b" d="M568 207h-1l-5-3-10-6q10 1 16 9"/><path fill="#d9dde2" d="M844 666c0 4 1 8-6 7l2-7z"/><path fill="#e2e1e1" d="m594 800-4-5v-1l11 1z"/><path fill="#070d3c" d="m227 361-1 3-1-10 5-2v4z"/><path fill="#0f1440" d="m801 365-5-7-1-2-1-6q7 6 7 15"/><path fill="#070d3c" d="m189 353 4-13-1 10z"/><path fill="#0f144b" d="m584 216-14-8q8 2 14 8"/><path fill="#c0c1ca" d="m691 789 1 5h-9z"/><path fill="#070d3c" d="M587 849q-3 3-9 5c0-6 5-5 9-5"/><path fill="#0f144b" d="m738 308-1-2q7-1 10 6h-2l-2-2zm-415-66 12-7zm337 19-10-6z"/><path fill="#0f1440" d="m238 681 8 8q-6-1-8-8"/><path fill="#e2e1e1" d="M335 235v-5h7v1l-1 1-2 1h-1l-1 1z"/><path fill="#0f144b" d="m379 209 2-2 4-3 5-1zm346 90-7-3-2-2q6-1 9 5M514 874l-9-1q5-3 9 1m-72-702 8-5q-2 6-8 5m227 94h-2l-7-5z"/><path fill="#070d3c" d="m599 842-4 3-4 2z"/><path fill="#0f144b" d="M344 274c-4 4-5 0-7-3z"/><path fill="#070d3c" d="m615 834-5 2c-2-5 3-2 6-4z"/><path fill="#0f144b" d="m747 312 7 4h-1zM542 193l7 3h-1zm-110-15 3-2 3-2zm-109 78-5-5zm-5-6-4-2 4-3z"/><path fill="#0f1440" d="m475 868-7-2q4-3 7 2"/><path fill="#e2e1e1" d="M692 231v3l-5-2z"/><path fill="#0f144b" d="m356 267-5 3zm260-31 5 3zm-251-19 5-3z"/><path fill="#070d3c" d="m575 856-5 3q0-4 5-3"/><path fill="#0f144b" d="m452 166 5-3zm-67 84-5 2zm321 38 5 3zm-346-69 5-2z"/><path fill="#070d3c" d="m570 859-5 3zM223 369l-1 6zm18-31-3 3z"/><path fill="#0f144b" d="m696 282 4 2h-1z"/><path fill="#0f1440" d="m794 350-2-3z"/><path fill="#0f144b" d="m429 179-4 2z"/><path fill="#0f1440" d="m767 324 4 2h-2z"/><path fill="#0f144b" d="m343 230 3-2z"/><path fill="#070d3c" d="m238 341-2 3zm-5 7-2 3z"/><path fill="#f3f2f6" d="m456 860-3-2z"/><path fill="#0f144b" d="m713 292 3 2zm-393-48 3-2zm270-69 2 1zm-132 32-3 2z"/><path fill="#d0d0d6" d="m779 689 2-2z"/><path fill="#0f144b" d="m675 270-3-2zm-80-92 3 2z"/><path fill="#fefefe" d="m355 753 1 2z"/><path fill="#c7cccc" d="M340 743v2l-2-1z"/><path fill="#0f144b" d="m358 222 2-2z"/><path fill="#0f1440" d="m234 676 2 2z"/><path fill="#0f144b" d="m602 183-2-2z"/><path fill="#0f1440" d="m789 342-2-2z"/><path fill="#0f144b" d="m582 171 2 1zm-231 54 2-1zm242-48 2 1zm-174 9-3 1z"/><path fill="#070d3c" d="m225 364-1 3z"/><path fill="#0f144b" d="m375 256 2-1zm3-2 2-1zm-6-41 1-1zm5-3 2-1z"/><path fill="#070d3c" d="M248 332h-1z"/><path fill="#0f144b" d="m711 291 2 1z"/><path fill="#0f1440" d="m776 330 2 1h-1z"/><path fill="#0f144b" d="m620 193 2 1zm-70 4 2 1zm150 87 2 1h-1zm-52-30 2 1z"/><path fill="#0f1440" d="M782 334h-2v-1zm3 4-1-1z"/><path fill="#0f144b" d="m703 286 2 1h-1zm-111-65 2 1h-1zm-170-37-2 1zm250 84-2-1zM568 163l2 1zM349 271l-1 1zm76-89-2 1zm173-2 1 1zm-252 93-1 1zm224-109 2 1zm-120 3 2-1zm-102 60 2-1zm379 73-2-1zm-386-69h2zm98-57 1-1z"/><path fill="#0f1440" d="m759 319 2 1h-1zm-2-1 2 1zm-3-2 2 1h-1z"/><path fill="#0f144b" d="M729 301h-2zm-391-68 2-1zm394 70-2-1z"/><path fill="#f3f2f6" d="m564 161 2 1h-2"/><path fill="#0f144b" d="m737 306-2-1zm-402-71 1-1zm281 0-2-1zm-29-17-2-1zm-1-45 2 1z"/><path fill="#0f1440" d="m762 321 2 1h-1zm3 2 2 1z"/><path fill="#0f144b" d="m623 239-2-1zm2 1-2-1zm-30-17 2 1zm-241 1 1-1zm105-62 2-1zm-103 61 1-1zm-38 22 2-1zm272-24 2 1zm-24-59h2zm24 58-2-1z"/><path fill="#0f1440" d="m772 327 2 1h-1z"/><path fill="#070d3c" d="m606 838-2 1zm-2 1-1 1zm-3 2-2 1z"/><path fill="#0f1440" d="M796 670v-2zm-2 3 1-2z"/><path fill="#e2e1e1" d="m347 796-2-1z"/><path fill="#0f1440" d="m233 674 1 1zm4 5 1 1z"/><path fill="#d0d0d6" d="m777 690 2-1v1z"/><path fill="#e2e1e1" d="m354 800-2-1z"/><path fill="#0f1440" d="m269 705 2 1z"/><path fill="#e2e1e1" d="m357 802-2-1z"/><path fill="#f3f2f6" d="m438 803 2 1z"/><path fill="#0f1440" d="m250 693 2 1zm540-349-1-1zM467 865l-1-1z"/><path fill="#070d3c" d="m561 864-2 1z"/><path fill="#0f1440" d="M477 869h-2zm325-502-1-2z"/><path fill="#070d3c" d="m565 862-2 1z"/><path fill="#f3f2f6" d="m462 863-2-1zm-9-5-2-1zm-2-1-2-1z"/><path fill="#070d3c" d="m591 847-2 1zm-14 8-2 1z"/><path fill="#fafafc" d="M356 755h2v1z"/><path fill="#0f144b" d="M585 217h-1zm-214-3 1-1zm5-3"/><path fill="#e1e1e1" d="M282 711"/><path fill="#0f144b" d="m588 219-1-1zm-251 15 1-1z"/><path fill="#d0d0d6" d="M283 758"/><path fill="#0f144b" d="m347 228 1-1zm238-56 1 1zm-144 1 1-1zm136-6 1 1zm-119-4 1-1zm107-2v1zm-16 35"/><path fill="#0f1440" d="M249 692h1zm-1-1 1 1z"/><path fill="#0f144b" d="M420 185v-1zm3-2v-1z"/><path fill="#0f1440" d="m793 674 1-1zm-560-1"/><path fill="#0f144b" d="M426 181"/><path fill="#0f1440" d="m795 671 1-1zm-39-354"/><path fill="#070d3c" d="m602 840-1 1zm7-4-1 1z"/><path fill="#0f144b" d="m735 305-1-1zm-2-1-1-1zm-3-2h-1z"/><path fill="#e1e1e1" d="m236 292 1-1z"/><path fill="#0f1440" d="M778 331"/><path fill="#070d3c" d="m236 344-1 1z"/><path fill="#0f1440" d="m787 340-1-1zm4 5-1-1zm1 1-1-1z"/><path fill="#070d3c" d="m243 336-1 1z"/><path fill="#0f1440" d="M784 336h-1z"/><path fill="#070d3c" d="m244 335-1 1z"/><path fill="#0f1440" d="M783 335h-1z"/><path fill="#070d3c" d="m245 334-1 1zm1-1-1 1z"/><path fill="#0f1440" d="M779 332"/><path fill="#0f144b" d="M705 287"/><path fill="#070d3c" d="m250 330-1 1z"/><path fill="#0f1440" d="M774 328"/><path fill="#c9cfd1" d="m840 358 1 1z"/><path fill="#0f1440" d="M761 320"/><path fill="#0f144b" d="M670 267h-1z"/><path fill="#e1e1e1" d="M424 795"/><path fill="#e2e1e1" d="M334 789"/><path fill="#0f144b" d="M626 241h-1zm76 44"/><path fill="#f7f7f9" d="M771 281"/><path fill="#f3f2f6" d="M437 802"/><path fill="#0f144b" d="m347 272-1 1z"/><path fill="#e2e1e1" d="M352 799"/><path fill="#0f144b" d="m350 270-1 1zm-13 1-1-1z"/><path fill="#fefefe" d="M180 282v-25h26v25z"/><path fill="#fdfdfd" d="M308 180h26v26h-26zm-51 179v-25h26v25z"/><path fill="#c9c9c8" d="M308 206h26v25h-26z"/><path fill="#f3f2f6" d="M845 616v-31l3 5-2 13v12z"/><path fill="#e1e1e1" d="M845 492v-5h1zm0 22v-2l1 1z"/><path fill="#e2e1e1" d="M845 541v-2h1z"/><path fill="#f3f2f6" d="M845 569v-15l2 10z"/><path fill="#e2e1e1" d="M181 487v2zm664-58q1 0 0 0"/><path fill="#c9c9c8" d="M846 206v25h-26v-25z"/><path fill="#fefefe" d="m820 232 26-1v26h-26z"/><path fill="#c8c8c7" d="M820 257h26v26h-26z"/><path fill="#fefefe" d="M820 283h26v25h-25z"/><path fill="#fefefd" d="M180 820h26v26h-26z"/><path fill="#c9c9c8" d="M206 846v-26h25v26z"/><path fill="#fefefd" d="M769 846h-26v-26h26z"/><path fill="#c9c9c9" d="M743 820v26h-25v-26z"/><path fill="#fefefd" d="M718 820v26h-26v-26zm-77 26v-22q0-4 4-4h22v26z"/><path fill="#c9c9c8" d="M667 846v-26h25v26z"/><path fill="#c7c7c7" d="M359 820h18l5 2-7 8 9 2v14h-26z"/><path fill="#c8c8c8" d="M334 846h-26v-26h26z"/><path fill="#fefefd" d="M334 846v-26h24l1 26z"/><path fill="#fefefe" d="M308 820v26h-25v-26zm-77 26v-26h26v26zm615-77h-26v-26h26z"/><path fill="#c9c9c8" d="M832 743h-12v-25h5l21 3v17q-6 4-12 3z"/><path fill="#c6c7cb" d="m846 721-21-2 21-1zm-14 22 2-2q6 1 11-3l1 5z"/><path fill="#cbcacf" d="M846 698v-6h1z"/><path fill="#c8c8c8" d="M206 794v-25h25v25z"/><path fill="#fefefe" d="m206 795 25-1v26h-25z"/><path fill="#c7c7c7" d="M206 743v26h-26v-26z"/><path fill="#fdfdfd" d="M846 206h-26v-26h26z"/><path fill="#fefefd" d="M769 180h26v26h-26z"/><path fill="#c9c9c9" d="M795 206v-26h25v26z"/><path fill="#d0d0d6" d="M600 181h17l-2 8-11-6z"/><path fill="#c8c8c7" d="M769 180v26h-26v-26z"/><path fill="#c7c7c7" d="M769 846v-26h26v26z"/><path fill="#fefefe" d="M795 846v-26h25v26z"/><path fill="#cbcbcb" d="m390 202-5 2v-10l14-4 1-8v-2h11l2 8z"/><path fill="#c9c9c8" d="M400 180v2l-1 8-14 3v-13z"/><path fill="#f3f2f6" d="m414 188-3-8h11v-1h-4v-1l11 1-3 2h-1l-2 2h-1l-2 2h-1l-3 2z"/><path fill="#c7c7c7" d="M257 846v-26h26v26z"/><path fill="#cacac9" d="M692 180h26v26h-26z"/><path fill="#fefefd" d="M692 180v26h-25v-26z"/><path fill="#6d7190" d="M182 381v2zm0 34"/><path fill="#fdfdfd" d="M718 206v-26h25v26z"/><path fill="#fefefe" d="M206 743h-26v-25h26z"/><path fill="#c9c9c9" d="M334 206v-26h25v26z"/><path fill="#c8c9ca" d="m385 832-9-2 7-8z"/><path fill="#fefefe" d="M820 795h-25v-26h25z"/><path fill="#fdfdfd" d="M795 820h-26v-25h26z"/><path fill="#cacaca" d="M641 768v-22l2 1 3 13c4 2 2-5 5-5q3 10-10 13m25-18v3l-4-1v-1zm-11 3 2-2v2z"/><path fill="#c9c9c8" d="M795 360v25h-26v-26h25zm-26-26v25h-26v-25z"/><path fill="#cacaca" d="m738 308 5 3v23h-25v-20c6 0 12 1 14-6z"/><path fill="#c8c9ca" d="m701 285 2 1 1 1 2 1 5 3 2 1 3 2 2 2v12h-26v-25l3-1h1l3 2zm31 23c-2 7-8 6-13 6l-1-6z"/><path fill="#f7f7f9" d="m377 255 1-1 2-1 5-2v6h-10v-1z"/><path fill="#fdfdfd" d="m411 242 3 2-3 1z"/><path fill="#c9c9c8" d="M257 667h-25l-1-26h26z"/><path fill="#cbcbcb" d="M222 639v-24h9v-6l2 6-2 13v13h-8z"/><path fill="#fefefe" d="m795 657-1 9-9 1h-16v-26h26z"/><path fill="#fbfbfc" d="m805 638-3 13-1-10h-6v-26h9l1 10z"/><path fill="#d0d0d6" d="m648 254 2 1 1 2h-10v-6z"/><path fill="#c0c1ca" d="M795 385h8l1 15v10h-9z"/><path fill="#fefefd" d="M231 385v-24l1-2h25v26z"/><path fill="#fdfdfd" d="M222 385h9l1 25h-10z"/><path fill="#e1e1e1" d="m695 282-3 1h-1v-3z"/><path fill="#f3f2f6" d="m597 224 8 5-16 1v-10h2l1 1 2 1z"/><path fill="#fdfdfd" d="M231 609v6h-9v-25h9z"/><path fill="#cbcbcb" d="M222 410h9v26h-9z"/><path fill="#cacaca" d="M803 615h-8v-25l8 1z"/><path fill="#fdfdfd" d="M795 410h9l1 24-10 2z"/><path fill="#c0c1ca" d="m795 436 9-2v7h-1c-3-4-5 0-8 0z"/><path fill="#cacac9" d="M462 231v-17q0-7 6-8l19 1v24z"/><path fill="#fdfdfd" d="M222 436h9v26h-8l-1-1zm581 154h-8v-26h10v20z"/><path fill="#cbcbcb" d="M803 564h-9v-26h1l8 2zm-572 26h-9v-25l9-1zm564-149c3 0 5-4 8 0v7l1 13v1h-9z"/><path fill="#fefefe" d="m539 819-26 1v-25h26zm-51-588-1-24 1-1h25v26z"/><path fill="#c9c9c8" d="M513 231v-25h26v25z"/><path fill="#fefefe" d="M539 231v-25l23-1 5 2-3 5v19z"/><path fill="#c0c1ca" d="m805 486-1 27h-9v-26z"/><path fill="#fdfdfd" d="M795 513h9v25l-1 1-8-1zm10-28-10 2v-25h9l1 3z"/><path fill="#fdfdfe" d="M222 513v-25l1-1h8v26z"/><path fill="#cbcbcb" d="M231 487h-8v-25h8z"/><path fill="#fdfdfe" d="M231 564h-9v-25l1-1h8z"/><path fill="#c9c9c8" d="M513 795v25h-24l-1-2v-23z"/><path fill="#c9c8c8" d="M231 538h-8v-25h8z"/><path fill="#cbcbcb" d="m223 643-1-2h1z"/><path fill="#c8c8c7" d="M513 206h-25l-1-13 26-4z"/><path fill="#fefefe" d="M231 795v-25h26v25zm-25-26v-25l25-1v26z"/><path fill="#c7c7c7" d="M795 795h-26v-26h26z"/><path fill="#c9c9c8" d="M820 769h-25v-24l1-2h24z"/><path fill="#fefefe" d="M795 257h-26v-26l26 1zm25 0v26h-24l-1-26z"/><path fill="#c8c8c7" d="M257 794v-25h26v26z"/><path fill="#c8c8c8" d="M308 820h-25v-25h25z"/><path fill="#c8c8c7" d="M718 820h-26v-26h26z"/><path fill="#fefefe" d="M769 769v26l-26-1v-25z"/><path fill="#c8c8c7" d="m743 794 26 1v25h-26z"/><path fill="#fefefe" d="M743 795v25h-25v-25z"/><path fill="#c9c9c8" d="M769 231v26h-26v-26zm-51-25h25v25l-25 1z"/><path fill="#fefefe" d="M308 820v-25h26v25z"/><path fill="#e2e1e1" d="m232 359-1 2h-4l3-5z"/><path fill="#d0d0d6" d="m770 326 2 1 1 1 2 1 1 1 1 1 2 1 1 1v1h-11z"/><path fill="#e1e1e1" d="m795 360 1-3 1 2z"/><path fill="#fefefe" d="M718 206v25h-26v-25z"/><path fill="#d9dde2" d="M223 462v25l-1 1zm0 51v25l-1 1z"/><path fill="#e2e1e1" d="M223 462v-1z"/><path fill="#c7c7c7" d="M795 641h6l1 11-1 5h-5z"/><path fill="#c0c1ca" d="m803 540 1-1z"/><path fill="#d9dde2" d="m803 591 1 3-1 21v1h-1z"/><path fill="#e2e1e1" d="M803 447v-6h1v20l-1-13z"/><path fill="#c0c1ca" d="m804 615 1 10zm1-22-1-3 1-6zm0-17v-6zm0 62v-6zm-1-177v5l-1-3z"/><path fill="#fafafc" d="M223 641v-2z"/><path fill="#fbfbfc" d="M513 206v-17l25 4 1 13z"/><path fill="#cbcbcb" d="m539 206-1-13h3l7 3 2 1 2 1 10 6z"/><path fill="#e2e1e1" d="M539 193v-1z"/><path fill="#fafafc" d="M769 326v8h-26v-22h4l6 4 2 1 2 1 1 1 2 1 2 1 1 1 2 1 2 1z"/><path fill="#e2e1e1" d="M745 312h-2v-1z"/><path fill="#c9c9c8" d="M820 257h-25v-26h25z"/><path fill="#fff" d="M820 231h-25v-25h25z"/><path fill="#c8c8c7" d="M257 794v26h-26v-25z"/><path fill="#c8c8c8" d="M795 206v26l-26-1v-25z"/><path fill="#fefefe" d="M769 206v25h-26v-25zM257 820v-25h26v25z"/><path fill="#c0c1ca" d="M803 447"/></svg>